<?xml version="1.0" encoding="utf-8"?>
<svg version="1.1" xmlns:xlink="http://www.w3.org/1999/xlink" width="211px" height="170px" xmlns="http://www.w3.org/2000/svg">
  <g>
    <path d="M 0 0  L 211 0  L 211 170  L 0 170  L 0 0  " fill-rule="nonzero" fill="#cccccc" stroke="none" />
    <path d="M 12 12  L 199 12  L 199 158  L 12 158  L 12 12  " fill-rule="nonzero" fill="#ffffff" stroke="none" />
    <path d="M 122.47 51  C 115.33 51  109.72 45.39  109.72 38.25  C 109.72 31.11  115.33 25.5  122.47 25.5  C 129.61 25.5  135.22 31.11  135.22 38.25  C 135.22 45.39  129.61 51  122.47 51  " fill-rule="nonzero" fill="#cccccc" stroke="none" />
    <path d="M 17 154  L 17 78.65  L 61.5 44.4  L 123.8 87.7725118483412  L 159.4 64.95  L 195 87.7725118483412  L 195 154  L 17 154  " fill-rule="nonzero" fill="#169bd5" stroke="none" />
  </g>
</svg>