<?xml version="1.0" encoding="utf-8"?>
<svg version="1.1" xmlns:xlink="http://www.w3.org/1999/xlink" width="12px" height="12px" xmlns="http://www.w3.org/2000/svg">
  <g transform="matrix(1 0 0 1 -368 -1195 )">
    <path d="M 374 1195  C 377.36 1195  380 1197.64  380 1201  C 380 1204.36  377.36 1207  374 1207  C 370.64 1207  368 1204.36  368 1201  C 368 1197.64  370.64 1195  374 1195  Z " fill-rule="nonzero" fill="#ffffff" stroke="none" />
    <path d="M 374 1195.5  C 377.08 1195.5  379.5 1197.92  379.5 1201  C 379.5 1204.08  377.08 1206.5  374 1206.5  C 370.92 1206.5  368.5 1204.08  368.5 1201  C 368.5 1197.92  370.92 1195.5  374 1195.5  Z " stroke-width="1" stroke="#409eff" fill="none" />
  </g>
</svg>