<?xml version="1.0" encoding="utf-8"?>
<svg version="1.1" xmlns:xlink="http://www.w3.org/1999/xlink" width="12px" height="12px" xmlns="http://www.w3.org/2000/svg">
  <g transform="matrix(1 0 0 1 -368 -1195 )">
    <path d="M 374 1197  C 376.24 1197  378 1198.76  378 1201  C 378 1203.24  376.24 1205  374 1205  C 371.76 1205  370 1203.24  370 1201  C 370 1198.76  371.76 1197  374 1197  Z " fill-rule="nonzero" fill="#ffffff" stroke="none" />
    <path d="M 374 1196.5  C 376.52 1196.5  378.5 1198.48  378.5 1201  C 378.5 1203.52  376.52 1205.5  374 1205.5  C 371.48 1205.5  369.5 1203.52  369.5 1201  C 369.5 1198.48  371.48 1196.5  374 1196.5  Z " stroke-width="3" stroke="#409eff" fill="none" />
  </g>
</svg>