<?xml version="1.0" encoding="utf-8"?>
<svg version="1.1" xmlns:xlink="http://www.w3.org/1999/xlink" width="38px" height="32px" xmlns="http://www.w3.org/2000/svg">
  <g transform="matrix(1 0 0 1 -388 -953 )">
    <path d="M 14.9723958333333 14.5480769230769  C 16.0873263888889 13.4647435897436  17.4298611111111 12.9230769230769  19 12.9230769230769  C 20.5701388888889 12.9230769230769  21.9126736111111 13.4647435897436  23.0276041666667 14.5480769230769  C 24.1425347222222 15.6314102564103  24.7 16.9358974358974  24.7 18.4615384615385  C 24.7 19.9871794871795  24.1425347222222 21.2916666666667  23.0276041666667 22.375  C 21.9126736111111 23.4583333333333  20.5701388888889 24  19 24  C 17.4298611111111 24  16.0873263888889 23.4583333333333  14.9723958333333 22.375  C 13.8574652777778 21.2916666666667  13.3 19.9871794871795  13.3 18.4615384615385  C 13.3 16.9358974358974  13.8574652777778 15.6314102564103  14.9723958333333 14.5480769230769  Z M 28.5 4.92307692307692  L 32.9333333333333 4.92307692307692  C 34.3319444444444 4.92307692307692  35.5260416666667 5.40384615384615  36.515625 6.36538461538462  C 37.5052083333333 7.32692307692308  38 8.48717948717949  38 9.84615384615385  L 38 27.0769230769231  C 38 28.4358974358974  37.5052083333333 29.5961538461538  36.515625 30.5576923076923  C 35.5260416666667 31.5192307692308  34.3319444444444 32  32.9333333333333 32  L 5.06666666666667 32  C 3.66805555555556 32  2.47395833333333 31.5192307692308  1.484375 30.5576923076923  C 0.494791666666667 29.5961538461538  0 28.4358974358974  0 27.0769230769231  L 0 9.84615384615385  C 0 8.48717948717949  0.494791666666667 7.32692307692308  1.484375 6.36538461538462  C 2.47395833333333 5.40384615384615  3.66805555555556 4.92307692307692  5.06666666666667 4.92307692307692  L 9.5 4.92307692307692  L 10.509375 2.30769230769231  C 10.7600694444444 1.67948717948718  11.2185763888889 1.13782051282051  11.8848958333333 0.682692307692307  C 12.5512152777778 0.227564102564106  13.2340277777778 0  13.9333333333333 0  L 24.0666666666667 0  C 24.7659722222222 0  25.4487847222222 0.227564102564106  26.1151041666667 0.682692307692307  C 26.7814236111111 1.13782051282051  27.2399305555556 1.67948717948718  27.490625 2.30769230769231  L 28.5 4.92307692307692  Z M 12.7359375 24.5480769230769  C 14.4710069444444 26.2339743589744  16.5590277777778 27.0769230769231  19 27.0769230769231  C 21.4409722222222 27.0769230769231  23.5289930555556 26.2339743589744  25.2640625 24.5480769230769  C 26.9991319444444 22.8621794871795  27.8666666666667 20.8333333333333  27.8666666666667 18.4615384615385  C 27.8666666666667 16.0897435897436  26.9991319444444 14.0608974358974  25.2640625 12.375  C 23.5289930555556 10.6891025641026  21.4409722222222 9.84615384615385  19 9.84615384615385  C 16.5590277777778 9.84615384615385  14.4710069444444 10.6891025641026  12.7359375 12.375  C 11.0008680555556 14.0608974358974  10.1333333333333 16.0897435897436  10.1333333333333 18.4615384615385  C 10.1333333333333 20.8333333333333  11.0008680555556 22.8621794871795  12.7359375 24.5480769230769  Z " fill-rule="nonzero" fill="#000000" stroke="none" transform="matrix(1 0 0 1 388 953 )" />
  </g>
</svg>