<?xml version="1.0" encoding="utf-8"?>
<svg version="1.1" xmlns:xlink="http://www.w3.org/1999/xlink" width="43px" height="43px" xmlns="http://www.w3.org/2000/svg">
  <g transform="matrix(1 0 0 1 -1073 -671 )">
    <path d="M 1094.5 671  C 1106.54 671  1116 680.46  1116 692.5  C 1116 704.54  1106.54 714  1094.5 714  C 1082.46 714  1073 704.54  1073 692.5  C 1073 680.46  1082.46 671  1094.5 671  Z " fill-rule="nonzero" fill="#ffffff" stroke="none" />
    <path d="M 1094.5 671.5  C 1106.26 671.5  1115.5 680.74  1115.5 692.5  C 1115.5 704.26  1106.26 713.5  1094.5 713.5  C 1082.74 713.5  1073.5 704.26  1073.5 692.5  C 1073.5 680.74  1082.74 671.5  1094.5 671.5  Z " stroke-width="1" stroke="#797979" fill="none" />
  </g>
</svg>