<?xml version="1.0" encoding="utf-8"?>
<svg version="1.1" xmlns:xlink="http://www.w3.org/1999/xlink" width="7px" height="6px" xmlns="http://www.w3.org/2000/svg">
  <g transform="matrix(1 0 0 1 -521 -1138 )">
    <path d="M 6.81048780487805 0.0714634146340813  L 6.93136585365852 0.243902439024396  C 6.99801642849587 0.339146305240547  6.99801642849587 0.493536621588873  6.93136585365852 0.588780487805025  L 3.61148780487804 5.3317073170731  C 3.57946395609764 5.37750659586118  3.53600889601694 5.40324064790639  3.49069512195121 5.40324064790639  C 3.44538134788553 5.40324064790639  3.40192628780477 5.37750659586118  3.36990243902437 5.3317073170731  L 0.050024390243891 0.588780487805025  C -0.0166261845934059 0.493536621588873  -0.0166261845934059 0.339146305240547  0.050024390243891 0.243902439024396  L 0.170731707317088 0.0714634146340813  C 0.237402413668292 -0.0237516922761642  0.345475635112166 -0.0237516922761642  0.412146341463426 0.0714634146340813  L 3.49060975609757 4.46926829268295  L 6.56924390243904 0.0714634146340813  C 6.63591460879024 -0.0237516922761642  6.74398783023412 -0.0237516922761642  6.81065853658538 0.0714634146340813  Z " fill-rule="nonzero" fill="#909399" stroke="none" fill-opacity="0.647058823529412" transform="matrix(1 0 0 1 521 1138 )" />
  </g>
</svg>