<?xml version="1.0" encoding="utf-8"?>
<svg version="1.1" xmlns:xlink="http://www.w3.org/1999/xlink" width="13px" height="13px" xmlns="http://www.w3.org/2000/svg">
  <g transform="matrix(1 0 0 1 -84 -46 )">
    <path d="M 12.9312294921875 6.5  C 12.9312294921875 6.94372656250016  12.5710634765625 7.30389257812521  12.1273369140625 7.30389257812521  L 10.519564453125 7.30389257812521  C 10.0757998046875 7.30389257812521  9.715671875 6.94372656250016  9.715671875 6.5  C 9.715671875 6.05627343749984  10.075837890625 5.69610742187479  10.519564453125 5.69610742187479  L 12.1273369140625 5.69610742187479  C 12.5711015625 5.69610742187479  12.9312294921875 6.05627343749984  12.9312294921875 6.5  Z M 11.046876953125 3.08987402343746  L 9.9101640625 4.22658691406241  C 9.59664062499999 4.54011035156236  9.08697460937501 4.54011035156236  8.773451171875 4.22658691406241  C 8.45992773437499 3.91306347656246  8.45992773437499 3.40339746093741  8.773451171875 3.08987402343746  L 9.9101640625 1.95316113281251  C 10.2236875 1.63963769531256  10.733353515625 1.63963769531256  11.046876953125 1.95316113281251  C 11.360400390625 2.26668457031246  11.360400390625 2.77635058593751  11.046876953125 3.08987402343746  Z M 7.30389257812499 12.1273242187499  C 7.30389257812499 12.5710888671874  6.94372656249999 12.9312167968751  6.5 12.9312167968751  C 6.05623535156249 12.9312167968751  5.69610742187501 12.5710507812501  5.69610742187501 12.1273242187499  L 5.69610742187501 10.5195517578127  C 5.69610742187501 10.0757871093751  6.05627343750001 9.71565917968746  6.5 9.71565917968746  C 6.94372656249999 9.71565917968746  7.30389257812499 10.0758251953125  7.30389257812499 10.5195517578127  L 7.30389257812499 12.1273242187499  Z M 7.30389257812499 2.48047363281239  C 7.30389257812499 2.92423828124993  6.94372656249999 3.28436621093761  6.5 3.28436621093761  C 6.05623535156249 3.28436621093761  5.69610742187501 2.92420019531255  5.69610742187501 2.48047363281239  L 5.69610742187501 0.872701171875178  C 5.69610742187501 0.428936523437642  6.05627343750001 0.0688085937499636  6.5 0.0688085937499636  C 6.94372656249999 0.0688085937499636  7.30389257812499 0.428974609375018  7.30389257812499 0.872701171875178  L 7.30389257812499 2.48047363281239  Z M 4.226548828125 9.91020214843729  L 3.0898359375 11.0469150390627  C 2.77631249999999 11.3604384765626  2.266646484375 11.3604384765626  1.95312304687499 11.0469150390627  C 1.63959960937501 10.7333916015623  1.63959960937501 10.2237255859377  1.95312304687499 9.91020214843729  L 3.0898359375 8.77348925781234  C 3.40335937500001 8.45996582031239  3.91302539062499 8.45996582031239  4.226548828125 8.77348925781234  C 4.54007226562501 9.0870126953123  4.54007226562501 9.59667871093734  4.226548828125 9.91020214843729  Z M 4.226548828125 4.22658691406241  C 3.91142578124999 4.54011035156236  3.40335937500001 4.54011035156236  3.0898359375 4.22658691406241  L 1.95312304687499 3.08987402343746  C 1.63959960937501 2.77635058593751  1.63959960937501 2.26668457031246  1.95312304687499 1.95316113281251  C 2.266646484375 1.63963769531256  2.77631249999999 1.63963769531256  3.0898359375 1.95316113281251  L 4.226548828125 3.08987402343746  C 4.54007226562501 3.40339746093741  4.54007226562501 3.91306347656246  4.226548828125 4.22658691406241  Z M 2.4804736328125 5.69610742187479  C 2.92423828125001 5.69610742187479  3.28436621093749 6.05627343749984  3.28436621093749 6.5  C 3.28436621093749 6.94376464843754  2.92420019531249 7.30389257812521  2.4804736328125 7.30389257812521  L 0.872701171875008 7.30389257812521  C 0.4289365234375 7.30389257812521  0.068808593749992 6.94372656250016  0.068808593749992 6.5  C 0.068808593749992 6.05627343749984  0.42897460937499 5.69610742187479  0.872701171875008 5.69610742187479  L 2.4804736328125 5.69610742187479  Z M 8.773451171875 8.77341308593759  C 9.08857421875001 8.45988964843764  9.59664062499999 8.45988964843764  9.9101640625 8.77341308593759  L 11.046876953125 9.91012597656254  C 11.360400390625 10.2236494140625  11.360400390625 10.7333154296875  11.046876953125 11.0468388671875  C 10.733353515625 11.3603623046874  10.2236875 11.3603623046874  9.9101640625 11.0468388671875  L 8.773451171875 9.91012597656254  C 8.45992773437499 9.59660253906259  8.45992773437499 9.08693652343754  8.773451171875 8.77341308593759  Z " fill-rule="nonzero" fill="#c0c4cc" stroke="none" fill-opacity="0.647058823529412" transform="matrix(1 0 0 1 84 46 )" />
  </g>
</svg>