<?xml version="1.0" encoding="utf-8"?>
<svg version="1.1" xmlns:xlink="http://www.w3.org/1999/xlink" width="30px" height="18px" xmlns="http://www.w3.org/2000/svg">
  <g transform="matrix(1 0 0 1 -218 -27 )">
    <path d="M 30 1.25  C 30 1.9375  29.4375 2.5  28.75 2.5  L 1.25 2.5  C 0.5625 2.5  0 1.9375  0 1.25  C 0 0.5625  0.5625 0  1.25 0  L 28.75 0  C 29.4375 0  30 0.5625  30 1.25  Z M 30 8.75  C 30 9.4375  29.4375 10  28.75 10  L 1.25 10  C 0.5625 10  0 9.4375  0 8.75  C 0 8.0625  0.5625 7.5  1.25 7.5  L 28.75 7.5  C 29.4375 7.5  30 8.0625  30 8.75  Z M 30 16.25  C 30 16.9375  29.4375 17.5  28.75 17.5  L 1.25 17.5  C 0.5625 17.5  0 16.9375  0 16.25  C 0 15.5625  0.5625 15  1.25 15  L 28.75 15  C 29.4375 15  30 15.5625  30 16.25  Z " fill-rule="nonzero" fill="#606266" stroke="none" transform="matrix(1 0 0 1 218 27 )" />
  </g>
</svg>