<?xml version="1.0" encoding="utf-8"?>
<svg version="1.1" xmlns:xlink="http://www.w3.org/1999/xlink" width="22px" height="22px" xmlns="http://www.w3.org/2000/svg">
  <g transform="matrix(1 0 0 1 -1621 -86 )">
    <path d="M 21.9366906474821 0.527577937649827  C 22.0158273381295 0.168824940048065  21.6412470023982 -0.121342925659307  21.3194244604316 0.052757793764916  L 0.226858513189472 11.4642685851319  C -0.0896882494003573 11.6383693045565  -0.0685851318943908 12.1026378896884  0.258513189448422 12.2503597122302  L 3.8565947242207 13.6062350119905  C 4.0676258992807 13.6853717026379  4.23645083932843 13.843645083933  4.33141486810561 14.0494004796165  L 7.12757793764983 19.8052757793765  C 7.18033573141474 20.0585131894484  7.64988009592316 20.1270983213431  7.65515587529965 19.8685851318944  L 7.2278177458035 15.1098321342926  C 7.25419664268596 14.7563549160674  7.38609112709825 14.4239808153477  7.61294964028772 14.1496402877698  L 18.5496402877698 3.4345323741007  C 18.6129496402877 3.3712230215828  18.7026378896884 3.35011990407684  18.7870503597123 3.36594724220631  C 18.9664268585133 3.40815347721824  19.0402877697842 3.62446043165473  18.9242206235011 3.76690647482001  L 9.49640287769789 15.2997601918467  C 9.28537170263789 15.6163069544365  9.17985611510806 15.8800959232614  9.12709832134281 16.2494004796165  L 8.56258992805754 20.3592326139088  C 8.61007194244597 20.7179856115109  8.88968824940036 20.8551558753  9.11654676258983 20.5333333333333  L 11.1477218225421 18.1486810551558  C 11.2848920863309 17.9534772182256  11.5539568345323 17.9112709832133  11.7438848920863 18.0484412470025  L 16.977458033573 21.8628297362112  C 17.2254196642684 22.0474820143884  17.578896882494 21.9103117505996  17.6422062350119 21.6043165467628  L 21.9366906474821 0.527577937649827  Z " fill-rule="nonzero" fill="#606266" stroke="none" transform="matrix(1 0 0 1 1621 86 )" />
  </g>
</svg>