<?xml version="1.0" encoding="utf-8"?>
<svg version="1.1" xmlns:xlink="http://www.w3.org/1999/xlink" width="31px" height="32px" xmlns="http://www.w3.org/2000/svg">
  <g transform="matrix(1 0 0 1 -316 -32 )">
    <path d="M 17.89203125 2.75125  L 19.36203125 0.1875  L 26.95046875 4.5625  L 25.48046875 7.12625  C 25.9821354166667 7.7190625  26.4378645833333 8.36838541666667  26.84765625 9.07421875  C 27.2574479166667 9.78005208333333  27.5994270833333 10.50921875  27.87359375 11.26171875  L 30.81359375 11.26171875  L 30.81359375 20.01171875  L 27.87359375 20.01171875  C 27.32671875 21.53859375  26.5290104166667 22.9170833333333  25.48046875 24.1471875  L 26.95046875 26.7109375  L 19.36203125 31.0859375  L 17.89203125 28.5221875  C 16.2966145833333 28.8182291666667  14.7015625 28.8182291666667  13.106875 28.5221875  L 11.636875 31.0859375  L 4.0484375 26.7109375  L 5.5184375 24.1471875  C 4.99416666666667 23.5317708333333  4.53260416666667 22.8766145833333  4.13375 22.18171875  C 3.73489583333333 21.4868229166667  3.39875 20.7634895833333  3.1253125 20.01171875  L 0.1853125 20.01171875  L 0.1853125 11.26171875  L 3.1253125 11.26171875  C 3.6721875 9.73484375  4.46989583333333 8.35635416666667  5.5184375 7.12625  L 4.0484375 4.5625  L 11.636875 0.1875  L 13.106875 2.75125  C 14.7022916666667 2.45520833333333  16.29734375 2.45520833333333  17.89203125 2.75125  Z M 23.94265625 5.3478125  L 20.18234375 3.16140625  L 19.7721875 3.845  L 19.0196875 5.17828125  L 17.481875 4.90484375  C 16.1598958333333 4.65401041666667  14.83828125 4.65401041666667  13.51703125 4.90484375  L 11.97921875 5.17828125  L 10.8165625 3.16140625  L 7.05625 5.34890625  L 8.18390625 7.36578125  L 7.19296875 8.5284375  C 6.32671875 9.55364583333333  5.66572916666667 10.7042708333333  5.21 11.9803125  L 4.69703125 13.4503125  L 2.3728125 13.4503125  L 2.3728125 17.8253125  L 4.663125 17.8253125  L 5.21 19.2953125  C 5.43822916666667 19.9559375  5.71166666666667 20.5596875  6.0303125 21.1065625  C 6.34895833333333 21.6534375  6.73651041666667 22.2003125  7.19296875 22.7471875  L 8.18390625 23.90984375  L 7.05625 25.92671875  L 10.8165625 28.11421875  L 11.97921875 26.09734375  L 13.51703125 26.37078125  C 14.8390104166667 26.6216145833333  16.160625 26.6216145833333  17.481875 26.37078125  L 19.0196875 26.09734375  L 20.18234375 28.11421875  L 23.94265625 25.92671875  L 22.815 23.90984375  L 23.8059375 22.7471875  C 24.6721875 21.6986458333333  25.3331770833333 20.5480208333333  25.78890625 19.2953125  L 26.301875 17.8253125  L 28.62609375 17.8253125  L 28.62609375 13.4503125  L 26.33578125 13.4503125  L 25.78890625 11.9803125  C 25.5840104166667 11.3648958333333  25.3105729166667 10.7666145833333  24.96859375 10.18546875  C 24.6266145833333 9.60432291666667  24.2390625 9.05161458333333  23.8059375 8.52734375  L 22.815 7.3646875  L 23.94265625 5.3478125  Z M 10.08265625 10.219375  C 11.5293229166667 8.77270833333333  13.3351041666667 8.02640625  15.5 7.98046875  C 17.6648958333333 8.02640625  19.4706770833333 8.77270833333333  20.91734375 10.219375  C 22.3640104166667 11.6660416666667  23.1103125 13.4718229166667  23.15625 15.63671875  C 23.1103125 17.8016145833333  22.3640104166667 19.6073958333333  20.91734375 21.0540625  C 19.4706770833333 22.5007291666667  17.6648958333333 23.24703125  15.5 23.29296875  C 13.3351041666667 23.24703125  11.5293229166667 22.5007291666667  10.08265625 21.0540625  C 8.63598958333333 19.6073958333333  7.8896875 17.8016145833333  7.84375 15.63671875  C 7.8896875 13.4718229166667  8.63598958333333 11.6660416666667  10.08265625 10.219375  Z M 19.36203125 11.7746875  C 18.3368229166667 10.7494791666667  17.0494791666667 10.21390625  15.5 10.16796875  C 13.9505208333333 10.21390625  12.6631770833333 10.7494791666667  11.63796875 11.7746875  C 10.6127604166667 12.7998958333333  10.0771875 14.0872395833333  10.03125 15.63671875  C 10.0771875 17.1861979166667  10.6127604166667 18.4735416666667  11.63796875 19.49875  C 12.6631770833333 20.5239583333333  13.9505208333333 21.05953125  15.5 21.10546875  C 17.0494791666667 21.05953125  18.3368229166667 20.5239583333333  19.36203125 19.49875  C 20.3872395833333 18.4735416666667  20.9228125 17.1861979166667  20.96875 15.63671875  C 20.9228125 14.0872395833333  20.3872395833333 12.7998958333333  19.36203125 11.7746875  Z " fill-rule="nonzero" fill="#000000" stroke="none" transform="matrix(1 0 0 1 316 32 )" />
  </g>
</svg>