<?xml version="1.0" encoding="utf-8"?>
<svg version="1.1" xmlns:xlink="http://www.w3.org/1999/xlink" width="7px" height="7px" xmlns="http://www.w3.org/2000/svg">
  <g transform="matrix(1 0 0 1 -325 -104 )">
    <path d="M 5.99921874999993 3.5  C 4.62109375 3.5  3.5 2.34609374999986  3.5 0.9296875  C 3.5 0.6015625  3.56015624999996 0.289843750000071  3.66953124999996 0.00546875000014148  C 3.61484374999996 0.00546875000014148  3.56015624999996 0  3.5 0  C 1.48203124999996 0  -0.142187499999965 1.71718749999986  0.0109374999999293 3.76796874999986  C 0.142187499999965 5.47968749999993  1.52031250000007 6.85781249999986  3.23203124999996 6.98906250000007  C 5.28281249999996 7.14218750000014  7 5.51796874999986  7 3.5  C 7 3.42890624999993  6.99453125000004 3.35781249999986  6.99453125000004 3.28671875000014  C 6.68828125000007 3.42343750000014  6.35468749999993 3.5  5.99921874999993 3.5  Z " fill-rule="nonzero" fill="#606266" stroke="none" transform="matrix(1 0 0 1 325 104 )" />
  </g>
</svg>