<?xml version="1.0" encoding="utf-8"?>
<svg version="1.1" xmlns:xlink="http://www.w3.org/1999/xlink" width="24px" height="15px" xmlns="http://www.w3.org/2000/svg">
  <g transform="matrix(1 0 0 1 -316 -100 )">
    <path d="M 23.7541202672606 6.94270833333337  C 20.9532293986636 3.63541666666654  17.0779510022272 0  11.962583518931 0  C 7.66503340757245 0  4.27616926503342 2.63541666666673  0.224498886414221 6.94270833333337  C -0.0694877505568002 7.26041666666656  -0.0748329621381345 7.734375  0.219153674832887 8.0520833333332  C 3.68819599109138 11.7864583333332  6.74565701559022 15  11.962583518931 15  C 17.1153674832962 15  20.9799554565701 10.9531249999998  23.7273942093541 8.02083333333329  C 24.0106904231627 7.71875000000005  24.0267260579065 7.26041666666656  23.7541202672606 6.94270833333337  Z M 16.7786191536748 7.71875000000005  C 16.6663697104677 10.1249999999999  14.6672605790645 12.0729166666665  12.1977728285077 12.1822916666666  C 9.36481069042311 12.3072916666665  7.03429844097991 10.0364583333332  7.16792873051218 7.28124999999995  C 7.28017817371929 4.87500000000014  9.27928730512249 2.92708333333346  11.7487750556793 2.81770833333344  C 14.5817371937639 2.69270833333346  16.9122494432071 4.96354166666678  16.7786191536748 7.71875000000005  Z " fill-rule="nonzero" fill="#606266" stroke="none" transform="matrix(1 0 0 1 316 100 )" />
  </g>
</svg>