<?xml version="1.0" encoding="utf-8"?>
<svg version="1.1" xmlns:xlink="http://www.w3.org/1999/xlink" width="8px" height="14px" xmlns="http://www.w3.org/2000/svg">
  <g transform="matrix(1 0 0 1 -347 -212 )">
    <path d="M 0.330612244897955 12.2958333333333  L 5.5142857142857 7  L 0.326530612244889 1.70833333333331  C -0.0571428571428701 1.31666666666671  -0.0571428571428701 0.68333333333337  0.326530612244889 0.295833333333372  C 0.710204081632647 -0.0916666666667088  1.33061224489796 -0.0916666666667088  1.71428571428571 0.295833333333372  L 7.59183673469391 6.29166666666668  C 7.96326530612246 6.67083333333335  7.9714285714286 7.27916666666663  7.62040816326531 7.67083333333334  L 1.71836734693878 13.7083333333333  C 1.5265306122449 13.9041666666667  1.27346938775509 14  1.0244897959184 14  C 0.775510204081651 14  0.522448979591835 13.9041666666667  0.330612244897955 13.7083333333333  C -0.0530612244898033 13.3166666666666  -0.0530612244898033 12.6833333333333  0.330612244897955 12.2958333333333  Z " fill-rule="nonzero" fill="#606266" stroke="none" transform="matrix(1 0 0 1 347 212 )" />
  </g>
</svg>