<?xml version="1.0" encoding="utf-8"?>
<svg version="1.1" xmlns:xlink="http://www.w3.org/1999/xlink" width="11px" height="6px" xmlns="http://www.w3.org/2000/svg">
  <g transform="matrix(1 0 0 1 -154 -480 )">
    <path d="M 9.95690972222222 0.280245535714284  L 9.95601851851852 0.280714285714286  L 5.5 4.85102678571428  L 1.04398148148148 0.280714285714285  C 0.960505401234568 0.192901785714285  0.86306712962963 0.148995535714285  0.751666666666667 0.148995535714285  C 0.640266203703704 0.148995535714285  0.542827932098766 0.192901785714285  0.459351851851852 0.280714285714285  C 0.375875771604939 0.368526785714286  0.334137731481482 0.471026785714286  0.334137731481482 0.588214285714285  C 0.334137731481482 0.705401785714286  0.371271219135803 0.803058035714285  0.445538194444445 0.881183035714285  L 5.19387152777778 5.74446428571428  C 5.27734760802469 5.83227678571429  5.37953896604938 5.87618303571428  5.50044560185185 5.87618303571428  C 5.62135223765432 5.87618303571428  5.72354359567901 5.83227678571429  5.80701967592593 5.74446428571428  L 10.5553530092593 0.895714285714285  C 10.6296199845679 0.807901785714285  10.6667534722222 0.702901785714285  10.6667534722222 0.580714285714284  C 10.6667534722222 0.458526785714285  10.6250154320988 0.356026785714285  10.5415393518519 0.273214285714285  C 10.4580632716049 0.190401785714285  10.360625 0.148839285714284  10.249224537037 0.148526785714285  C 10.1378240740741 0.148214285714285  10.0403858024691 0.192120535714285  9.95690972222222 0.280245535714284  Z " fill-rule="nonzero" fill="#ffffff" stroke="none" transform="matrix(1 0 0 1 154 480 )" />
  </g>
</svg>