<?xml version="1.0" encoding="utf-8"?>
<svg version="1.1" xmlns:xlink="http://www.w3.org/1999/xlink" width="13px" height="16px" xmlns="http://www.w3.org/2000/svg">
  <g transform="matrix(1 0 0 1 -25 -475 )">
    <path d="M 1.25000000000004 0.692307692307804  C 1.25000000000004 1.07307692307707  1.56640625000011 1.38461538461561  1.95312500000015 1.38461538461561  L 10.5468749999997 1.38461538461561  C 10.9335937499998 1.38461538461561  11.2499999999998 1.07307692307707  11.2499999999998 0.692307692307804  C 11.2499999999998 0.311538461538536  10.9335937499998 0  10.5468749999997 0  L 1.95312500000015 0  C 1.56640625000011 0  1.25000000000004 0.311538461538536  1.25000000000004 0.692307692307804  Z M 12.4999999999999 2.84615384615366  C 12.4999999999999 2.46538461538439  12.1835937499998 2.15384615384634  11.7968749999998 2.15384615384634  L 0.703125000000114 2.15384615384634  C 0.316406250000076 2.15384615384634  0 2.46538461538439  0 2.84615384615366  C 0 3.20384615384634  0.269531249999773 3.50384615384634  0.624999999999773 3.53846153846146  L 0.624999999999773 15.0769230769229  C 0.624999999999773 15.5846153846156  1.04687500000004 16  1.56249999999992 16  L 5.00000000000015 16  C 5.17187500000011 16  5.31250000000004 15.8615384615385  5.31250000000004 15.6923076923078  L 5.31250000000004 14.1538461538463  C 5.31250000000004 13.9846153846156  5.45312499999996 13.8461538461537  5.62499999999992 13.8461538461537  L 6.87499999999996 13.8461538461537  C 7.04687499999992 13.8461538461537  7.18749999999985 13.9846153846156  7.18749999999985 14.1538461538463  L 7.18749999999985 15.6923076923078  C 7.18749999999985 15.8615384615385  7.32812499999977 16  7.49999999999974 16  L 10.9375 16  C 11.4531249999998 16  11.8750000000001 15.5846153846156  11.8750000000001 15.0769230769229  L 11.8750000000001 3.53846153846146  C 12.2304687500001 3.50384615384634  12.4999999999999 3.20384615384634  12.4999999999999 2.84615384615366  Z M 3.75000000000011 11.6923076923078  L 3.75000000000011 12.3076923076922  C 3.75000000000011 12.4769230769229  3.60937500000019 12.6153846153844  3.43749999999973 12.6153846153844  L 2.81249999999996 12.6153846153844  C 2.640625 12.6153846153844  2.50000000000008 12.4769230769229  2.50000000000008 12.3076923076922  L 2.50000000000008 11.6923076923078  C 2.50000000000008 11.5230769230771  2.640625 11.3846153846156  2.81249999999996 11.3846153846156  L 3.43749999999973 11.3846153846156  C 3.60937500000019 11.3846153846156  3.75000000000011 11.5230769230771  3.75000000000011 11.6923076923078  Z M 3.75000000000011 9.23076923076927  L 3.75000000000011 9.84615384615366  C 3.75000000000011 10.0153846153844  3.60937500000019 10.1538461538463  3.43749999999973 10.1538461538463  L 2.81249999999996 10.1538461538463  C 2.640625 10.1538461538463  2.50000000000008 10.0153846153844  2.50000000000008 9.84615384615366  L 2.50000000000008 9.23076923076927  C 2.50000000000008 9.06153846153854  2.640625 8.92307692307707  2.81249999999996 8.92307692307707  L 3.43749999999973 8.92307692307707  C 3.60937500000019 8.92307692307707  3.75000000000011 9.06153846153854  3.75000000000011 9.23076923076927  Z M 3.75000000000011 6.76923076923073  L 3.75000000000011 7.38461538461561  C 3.75000000000011 7.55384615384634  3.60937500000019 7.6923076923078  3.43749999999973 7.6923076923078  L 2.81249999999996 7.6923076923078  C 2.640625 7.6923076923078  2.50000000000008 7.55384615384634  2.50000000000008 7.38461538461561  L 2.50000000000008 6.76923076923073  C 2.50000000000008 6.6  2.640625 6.46153846153854  2.81249999999996 6.46153846153854  L 3.43749999999973 6.46153846153854  C 3.60937500000019 6.46153846153854  3.75000000000011 6.6  3.75000000000011 6.76923076923073  Z M 3.75000000000011 4.3076923076922  L 3.75000000000011 4.92307692307707  C 3.75000000000011 5.0923076923078  3.60937500000019 5.23076923076927  3.43749999999973 5.23076923076927  L 2.81249999999996 5.23076923076927  C 2.640625 5.23076923076927  2.50000000000008 5.0923076923078  2.50000000000008 4.92307692307707  L 2.50000000000008 4.3076923076922  C 2.50000000000008 4.13846153846146  2.640625 4  2.81249999999996 4  L 3.43749999999973 4  C 3.60937500000019 4  3.75000000000011 4.13846153846146  3.75000000000011 4.3076923076922  Z M 6.87499999999996 11.6923076923078  L 6.87499999999996 12.3076923076922  C 6.87499999999996 12.4769230769229  6.73437500000004 12.6153846153844  6.56250000000008 12.6153846153844  L 5.93749999999981 12.6153846153844  C 5.76562499999985 12.6153846153844  5.62499999999992 12.4769230769229  5.62499999999992 12.3076923076922  L 5.62499999999992 11.6923076923078  C 5.62499999999992 11.5230769230771  5.76562499999985 11.3846153846156  5.93749999999981 11.3846153846156  L 6.56250000000008 11.3846153846156  C 6.73437500000004 11.3846153846156  6.87499999999996 11.5230769230771  6.87499999999996 11.6923076923078  Z M 6.87499999999996 9.23076923076927  L 6.87499999999996 9.84615384615366  C 6.87499999999996 10.0153846153844  6.73437500000004 10.1538461538463  6.56250000000008 10.1538461538463  L 5.93749999999981 10.1538461538463  C 5.76562499999985 10.1538461538463  5.62499999999992 10.0153846153844  5.62499999999992 9.84615384615366  L 5.62499999999992 9.23076923076927  C 5.62499999999992 9.06153846153854  5.76562499999985 8.92307692307707  5.93749999999981 8.92307692307707  L 6.56250000000008 8.92307692307707  C 6.73437500000004 8.92307692307707  6.87499999999996 9.06153846153854  6.87499999999996 9.23076923076927  Z M 6.87499999999996 6.76923076923073  L 6.87499999999996 7.38461538461561  C 6.87499999999996 7.55384615384634  6.73437500000004 7.6923076923078  6.56250000000008 7.6923076923078  L 5.93749999999981 7.6923076923078  C 5.76562499999985 7.6923076923078  5.62499999999992 7.55384615384634  5.62499999999992 7.38461538461561  L 5.62499999999992 6.76923076923073  C 5.62499999999992 6.6  5.76562499999985 6.46153846153854  5.93749999999981 6.46153846153854  L 6.56250000000008 6.46153846153854  C 6.73437500000004 6.46153846153854  6.87499999999996 6.6  6.87499999999996 6.76923076923073  Z M 6.87499999999996 4.3076923076922  L 6.87499999999996 4.92307692307707  C 6.87499999999996 5.0923076923078  6.73437500000004 5.23076923076927  6.56250000000008 5.23076923076927  L 5.93749999999981 5.23076923076927  C 5.76562499999985 5.23076923076927  5.62499999999992 5.0923076923078  5.62499999999992 4.92307692307707  L 5.62499999999992 4.3076923076922  C 5.62499999999992 4.13846153846146  5.76562499999985 4  5.93749999999981 4  L 6.56250000000008 4  C 6.73437500000004 4  6.87499999999996 4.13846153846146  6.87499999999996 4.3076923076922  Z M 9.99999999999981 11.6923076923078  L 9.99999999999981 12.3076923076922  C 9.99999999999981 12.4769230769229  9.85937499999989 12.6153846153844  9.68749999999992 12.6153846153844  L 9.06250000000015 12.6153846153844  C 8.8906249999997 12.6153846153844  8.74999999999977 12.4769230769229  8.74999999999977 12.3076923076922  L 8.74999999999977 11.6923076923078  C 8.74999999999977 11.5230769230771  8.8906249999997 11.3846153846156  9.06250000000015 11.3846153846156  L 9.68749999999992 11.3846153846156  C 9.85937499999989 11.3846153846156  9.99999999999981 11.5230769230771  9.99999999999981 11.6923076923078  Z M 9.99999999999981 9.23076923076927  L 9.99999999999981 9.84615384615366  C 9.99999999999981 10.0153846153844  9.85937499999989 10.1538461538463  9.68749999999992 10.1538461538463  L 9.06250000000015 10.1538461538463  C 8.8906249999997 10.1538461538463  8.74999999999977 10.0153846153844  8.74999999999977 9.84615384615366  L 8.74999999999977 9.23076923076927  C 8.74999999999977 9.06153846153854  8.8906249999997 8.92307692307707  9.06250000000015 8.92307692307707  L 9.68749999999992 8.92307692307707  C 9.85937499999989 8.92307692307707  9.99999999999981 9.06153846153854  9.99999999999981 9.23076923076927  Z M 9.99999999999981 6.76923076923073  L 9.99999999999981 7.38461538461561  C 9.99999999999981 7.55384615384634  9.85937499999989 7.6923076923078  9.68749999999992 7.6923076923078  L 9.06250000000015 7.6923076923078  C 8.8906249999997 7.6923076923078  8.74999999999977 7.55384615384634  8.74999999999977 7.38461538461561  L 8.74999999999977 6.76923076923073  C 8.74999999999977 6.6  8.8906249999997 6.46153846153854  9.06250000000015 6.46153846153854  L 9.68749999999992 6.46153846153854  C 9.85937499999989 6.46153846153854  9.99999999999981 6.6  9.99999999999981 6.76923076923073  Z M 9.99999999999981 4.3076923076922  L 9.99999999999981 4.92307692307707  C 9.99999999999981 5.0923076923078  9.85937499999989 5.23076923076927  9.68749999999992 5.23076923076927  L 9.06250000000015 5.23076923076927  C 8.8906249999997 5.23076923076927  8.74999999999977 5.0923076923078  8.74999999999977 4.92307692307707  L 8.74999999999977 4.3076923076922  C 8.74999999999977 4.13846153846146  8.8906249999997 4  9.06250000000015 4  L 9.68749999999992 4  C 9.85937499999989 4  9.99999999999981 4.13846153846146  9.99999999999981 4.3076923076922  Z " fill-rule="nonzero" fill="#d7d7d7" stroke="none" transform="matrix(1 0 0 1 25 475 )" />
  </g>
</svg>