<?xml version="1.0" encoding="utf-8"?>
<svg version="1.1" xmlns:xlink="http://www.w3.org/1999/xlink" width="17px" height="15px" xmlns="http://www.w3.org/2000/svg">
  <g transform="matrix(1 0 0 1 -22 -591 )">
    <path d="M 15.7857142857143 4  L 15.7857142857143 2.12482829670333  C 15.7857142857143 1.61100618131865  15.4290178571428 1.23626373626372  14.9205357142857 1.23626373626372  L 7.54754464285715 1.23626373626372  C 7.44129464285715 1.23626373626372  7.384375 1.21308379120878  7.31607142857146 1.14354395604397  L 6.4622767857143 0.274296016483526  L 6.4546875 0.266569368131859  C 6.26875 0.0888564560439748  6.1169642857143 0  5.7982142857143 0  L 2.1515625 0  C 1.6279017857143 0  1.2142857142857 0.397922390109871  1.2142857142857 0.888564560439551  L 1.2142857142857 4  L 15.7857142857143 4  Z M 16.096875 5  L 1.2142857142857 5  L 0.899330357142848 4.79052197802199  C 0.413616071428544 4.79052197802199  -0.0607142857143041 4.98755151098904  0.00758928571430412 5.72930975274724  C 0.0758928571428479 6.47106799450551  0.899330357142848 13.8693337912088  0.899330357142848 13.8693337912088  C 1.0017857142857 14.5570054945055  1.34330357142854 14.8351648351649  1.84799107142854 14.8351648351649  L 15.2241071428572 14.8351648351649  C 15.7060267857143 14.8351648351649  16.0209821428572 14.5338255494506  16.096875 13.8693337912088  C 16.096875 13.8693337912088  16.9392857142857 6.72604739010994  16.9924107142857 5.93020260989013  C 17.0455357142857 5.13822115384615  16.6546875 4.79052197802199  16.096875 5  Z " fill-rule="nonzero" fill="#d7d7d7" stroke="none" transform="matrix(1 0 0 1 22 591 )" />
  </g>
</svg>