<?xml version="1.0" encoding="utf-8"?>
<svg version="1.1" xmlns:xlink="http://www.w3.org/1999/xlink" width="13px" height="17px" xmlns="http://www.w3.org/2000/svg">
  <g transform="matrix(1 0 0 1 -24 -633 )">
    <path d="M 12.6623376623377 1.21428571428582  C 12.6623376623377 0.74375  12.385349025974 0.31875  11.9421672077922 0.121428571428608  C 11.7680600649351 0.0379464285713918  11.578125 0  11.3961038961039 0  C 11.1112012987013 0  10.8342126623377 0.0910714285713917  10.6047077922078 0.265625  L 5.44480519480523 4.25  L 1.26623376623375 4.25  C 0.569805194805166 4.25  0 4.79642857142861  0 5.46428571428583  L 0 11.5357142857142  C 0 12.2035714285714  0.569805194805166 12.75  1.26623376623375 12.75  L 5.44480519480523 12.75  L 10.6047077922078 16.734375  C 10.8342126623377 16.9089285714286  11.1191152597403 17  11.3961038961039 17  C 11.578125 17  11.7680600649351 16.9620535714286  11.9421672077922 16.8785714285714  C 12.385349025974 16.6736607142858  12.6623376623377 16.2486607142858  12.6623376623377 15.7857142857142  L 12.6623376623377 1.21428571428582  Z " fill-rule="nonzero" fill="#d7d7d7" stroke="none" transform="matrix(1 0 0 1 24 633 )" />
  </g>
</svg>