<?xml version="1.0" encoding="utf-8"?>
<svg version="1.1" xmlns:xlink="http://www.w3.org/1999/xlink" width="350px" height="150px" xmlns="http://www.w3.org/2000/svg">
  <g transform="matrix(1 0 0 1 -13 0 )">
    <path d="M 13 0  L 363 0  L 363 150  L 13 150  L 13 0  " fill-rule="nonzero" fill="#cccccc" stroke="none" />
    <path d="M 24 11  L 352 11  L 352 139  L 24 139  L 24 11  " fill-rule="nonzero" fill="#ffffff" stroke="none" />
    <path d="M 206.25 45  C 199.95 45  195 40.05  195 33.75  C 195 27.45  199.95 22.5  206.25 22.5  C 212.55 22.5  217.5 27.45  217.5 33.75  C 217.5 40.05  212.55 45  206.25 45  " fill-rule="nonzero" fill="#cccccc" stroke="none" />
    <path d="M 28 135  L 28 69  L 108 39  L 220 104.142857142857  L 284 57  L 348 104.142857142857  L 348 135  L 28 135  " fill-rule="nonzero" fill="#169bd5" stroke="none" />
  </g>
</svg>