<?xml version="1.0" encoding="utf-8"?>
<svg version="1.1" xmlns:xlink="http://www.w3.org/1999/xlink" width="11px" height="21px" xmlns="http://www.w3.org/2000/svg">
  <g transform="matrix(1 0 0 1 -26 -199 )">
    <path d="M 0 0.0252859723058406  L 0.580078125 0.0126429861529191  L 0.966796875 0.354003612281757  C 1.02408854166667 0.396146899458156  1.52777777777778 0.417218543046357  2.47786458333333 0.417218543046357  C 2.68793402777778 0.417218543046357  3.00303819444445 0.408789885611077  3.42317708333333 0.391932570740517  C 3.84331597222222 0.375075255869956  4.15842013888889 0.366646598434679  4.36848958333333 0.366646598434679  C 4.70269097222222 0.366646598434679  5.29112413194444 0.362432269717035  6.1337890625 0.354003612281757  C 6.97645399305556 0.345574954846477  7.70334201388889 0.343467790487656  8.314453125 0.347682119205297  C 8.92556423611111 0.351896447922936  9.51519097222222 0.370860927152317  10.0833333333333 0.404575556893438  C 10.2408854166667 0.413004214328716  10.3745659722222 0.282360024081876  10.484375 0.0126429861529191  L 10.78515625 0  C 10.8042534722222 0  10.8376736111111 0.0021071643588183  10.8854166666667 0.00632149307645957  C 10.9331597222222 0.0105358217940985  10.9665798611111 0.0126429861529191  10.9856770833333 0.0126429861529191  C 10.9952256944444 0.956652618904272  11 2.3726670680313  11 4.26068633353402  C 11 4.93497892835641  10.9880642361111 5.39434075857917  10.9641927083333 5.63877182420229  C 10.7779947916667 5.75677302829621  10.6156684027778 5.83263094521373  10.4772135416667 5.86634557495485  C 10.3578559027778 5.49548464780253  10.2289496527778 4.95605057194461  10.0904947916667 4.2480433473811  C 10.076171875 4.17218543046358  10.0499131944444 3.97200481637567  10.01171875 3.6475015051174  C 9.97352430555556 3.32299819385912  9.93771701388889 3.01324503311258  9.904296875 2.71824202287778  C 9.87087673611111 2.42323901264298  9.85416666666667 2.27152317880794  9.85416666666667 2.26309452137267  C 9.80642361111111 2.15352197471403  9.74197048611111 2.07344972907887  9.66080729166667 2.02287778446719  C 9.63693576388889 2.00602046959663  9.47938368055556 1.99759181216135  9.18815104166667 1.99759181216135  C 9.044921875 1.99759181216135  8.82291666666667 1.99337748344371  8.52213541666667 1.98494882600843  C 8.22135416666667 1.97652016857315  7.97547743055556 1.97230583985551  7.78450520833333 1.97230583985551  C 7.59353298611111 1.97230583985551  7.369140625 1.98073449729079  7.111328125 1.99759181216135  C 6.853515625 2.01444912703191  6.62434895833333 2.04394942805539  6.423828125 2.08609271523179  C 6.380859375 2.76881396748947  6.36176215277778 3.3419626730885  6.36653645833333 3.8055388320289  L 6.37369791666667 5.72727272727273  L 6.37369791666667 5.06983744732089  C 6.37369791666667 5.53341360626129  6.37608506944444 6.18242022877784  6.380859375 7.01685731487056  C 6.38563368055556 7.85129440096328  6.38921440972222 8.60987357013847  6.3916015625 9.29259482239615  C 6.39398871527778 9.97531607465382  6.39518229166667 10.6201083684527  6.39518229166667 11.2269717037929  C 6.39518229166667 11.3618302227574  6.38921440972222 11.6631547260686  6.37727864583333 12.1309452137267  C 6.36534288194445 12.5987357013847  6.36534288194445 12.9843467790488  6.37727864583333 13.2877784467188  C 6.38921440972222 13.5912101143889  6.41905381944444 13.8819987959061  6.466796875 14.1601444912703  C 6.65776909722222 14.3371462974112  6.95377604166667 14.5162552679109  7.35481770833333 14.6974714027694  C 7.755859375 14.8786875376279  8.04231770833333 15.0367248645394  8.21419270833333 15.1715833835039  C 8.23806423611111 15.5087296809151  8.25 15.7194461167971  8.25 15.8037326911499  C 8.25 15.9217338952438  8.24283854166667 16.0439494280554  8.228515625 16.1703792895846  L 7.98502604166667 16.1830222757375  C 7.62217881944445 16.1998795906081  7.10177951388889 16.166164960867  6.423828125 16.0818783865141  C 5.74587673611111 15.9975918121613  5.25173611111111 15.9554485249849  4.94140625 15.9554485249849  C 4.70269097222222 15.9554485249849  4.34223090277778 15.9933774834437  3.86002604166667 16.0692354003612  C 3.37782118055556 16.1450933172787  3.01497395833333 16.1830222757375  2.771484375 16.1830222757375  C 2.75716145833333 15.7531607465382  2.75 15.534015653221  2.75 15.5255869957857  L 2.75 15.4118001204094  C 2.83116319444445 15.1842263696568  2.97797309027778 15.0030102347983  3.1904296875 14.8681517158338  C 3.40288628472222 14.7332931968694  3.63802083333333 14.6110776640578  3.89583333333333 14.5015051173992  C 4.15364583333333 14.3919325707405  4.33984375 14.2781456953642  4.45442708333333 14.1601444912703  C 4.48784722222222 14.0252859723058  4.51529947916667 13.7134256472005  4.53678385416667 13.2245635159542  C 4.55826822916667 12.735701384708  4.57259114583333 12.1225165562914  4.57975260416667 11.3850090307044  C 4.5869140625 10.6475015051174  4.59049479166667 9.9942805538832  4.59049479166667 9.4253461770018  C 4.59049479166667 8.85641180012041  4.58930121527778 8.20951234196267  4.5869140625 7.4846478025286  C 4.58452690972222 6.75978326309452  4.58333333333333 6.38470800722456  4.58333333333333 6.35942203491872  C 4.58333333333333 6.30042143287176  4.57736545138889 6.2098133654425  4.5654296875 6.08759783263095  C 4.55349392361111 5.96538229981938  4.54752604166667 5.87055990367249  4.54752604166667 5.80313064419025  C 4.54752604166667 5.74413004214329  4.54871961805556 5.55869957856713  4.55110677083333 5.24683925346177  C 4.55349392361111 4.93497892835641  4.55588107638889 4.62733293196869  4.55826822916667 4.32390126429862  C 4.56065538194444 4.02046959662854  4.56065538194444 3.69807344972908  4.55826822916667 3.35671282360024  C 4.55588107638889 3.0153521974714  4.54871961805556 2.73088500903071  4.53678385416667 2.50331125827815  C 4.52484809027778 2.27573750752559  4.50933159722222 2.14087898856111  4.490234375 2.09873570138471  C 4.43771701388889 1.99759181216135  4.05099826388889 1.94701986754967  3.330078125 1.94701986754967  C 3.13433159722222 1.94701986754967  2.74522569444444 2.00391330523781  2.16276041666667 2.11770018061409  C 1.58029513888889 2.23148705599037  1.25086805555556 2.33473810957255  1.17447916666667 2.42745334136063  C 1.08376736111111 2.52859723058399  1.00260416666667 2.82992173389524  0.930989583333333 3.3314268512944  C 0.859375 3.83293196869356  0.7841796875 4.30282962071041  0.705403645833333 4.74111980734497  C 0.626627604166667 5.17940999397953  0.525173611111111 5.40698374473209  0.401041666666667 5.42384105960265  C 0.200520833333333 5.20469596628537  0.0668402777777778 5.01926550270921  0 4.86754966887417  L 0 0.0252859723058406  Z M 9.23470052083333 16.3537025888019  C 9.2705078125 16.2652016857315  9.31944444444445 16.2209512341963  9.38151041666667 16.2209512341963  C 9.43880208333333 16.2209512341963  9.5390625 16.3031306441902  9.68229166666667 16.4674894641782  C 9.82552083333333 16.6318482841662  9.96278211805556 16.8067429259482  10.0940755208333 16.9921733895244  C 10.2253689236111 17.1776038531005  10.3674045138889 17.3841059602649  10.5201822916667 17.6116797110175  C 10.6729600694444 17.83925346177  10.7588975694444 17.9656833232992  10.7779947916667 17.9909692956051  C 10.9021267361111 18.1679711017459  10.9641927083333 18.3744732089103  10.9641927083333 18.6104756170981  C 10.9641927083333 18.846478025286  10.9021267361111 19.0529801324503  10.7779947916667 19.2299819385912  C 10.7588975694444 19.2552679108971  10.6729600694444 19.3816977724263  10.5201822916667 19.6092715231788  C 10.3674045138889 19.8368452739314  10.2253689236111 20.0433473810957  10.0940755208333 20.2287778446719  C 9.96278211805556 20.414208308248  9.82552083333333 20.5891029500301  9.68229166666667 20.7534617700181  C 9.5390625 20.917820590006  9.43880208333333 21  9.38151041666667 21  C 9.31944444444445 21  9.2705078125 20.9557495484648  9.23470052083333 20.8672486453943  C 9.19889322916667 20.7787477423239  9.17502170138889 20.6586393738712  9.1630859375 20.5069235400361  C 9.15115017361111 20.3552077062011  9.14518229166667 20.2140276941601  9.14518229166667 20.0833835039133  C 9.14518229166667 19.9527393136665  9.14876302083333 19.8136664659843  9.15592447916667 19.6661649608669  C 9.1630859375 19.5186634557495  9.16666666666667 19.4364840457556  9.16666666666667 19.419626730885  L 1.83333333333333 19.419626730885  C 1.83333333333333 19.4364840457556  1.8369140625 19.5186634557495  1.84407552083333 19.6661649608669  C 1.85123697916667 19.8136664659843  1.85481770833333 19.9527393136665  1.85481770833333 20.0833835039133  C 1.85481770833333 20.2140276941601  1.84884982638889 20.3552077062011  1.8369140625 20.5069235400361  C 1.82497829861111 20.6586393738712  1.80110677083333 20.7787477423239  1.76529947916667 20.8672486453943  C 1.7294921875 20.9557495484648  1.68055555555556 21  1.61848958333333 21  C 1.56119791666667 21  1.4609375 20.917820590006  1.31770833333333 20.7534617700181  C 1.17447916666667 20.5891029500301  1.03721788194444 20.414208308248  0.905924479166667 20.2287778446719  C 0.774631076388889 20.0433473810957  0.632595486111111 19.8368452739314  0.479817708333333 19.6092715231788  C 0.327039930555556 19.3816977724263  0.241102430555556 19.2552679108971  0.222005208333333 19.2299819385912  C 0.0978732638888889 19.0529801324503  0.0358072916666667 18.846478025286  0.0358072916666667 18.6104756170981  C 0.0358072916666667 18.3744732089103  0.0978732638888889 18.1679711017459  0.222005208333333 17.9909692956051  C 0.241102430555556 17.9656833232992  0.327039930555556 17.83925346177  0.479817708333333 17.6116797110175  C 0.632595486111111 17.3841059602649  0.774631076388889 17.1776038531005  0.905924479166667 16.9921733895244  C 1.03721788194444 16.8067429259482  1.17447916666667 16.6318482841662  1.31770833333333 16.4674894641782  C 1.4609375 16.3031306441902  1.56119791666667 16.2209512341963  1.61848958333333 16.2209512341963  C 1.68055555555556 16.2209512341963  1.7294921875 16.2652016857315  1.76529947916667 16.3537025888019  C 1.80110677083333 16.4422034918724  1.82497829861111 16.5623118603251  1.8369140625 16.7140276941601  C 1.84884982638889 16.8657435279952  1.85481770833333 17.0069235400361  1.85481770833333 17.137567730283  C 1.85481770833333 17.2682119205298  1.85123697916667 17.4072847682119  1.84407552083333 17.5547862733293  C 1.8369140625 17.7022877784467  1.83333333333333 17.7844671884407  1.83333333333333 17.8013245033113  L 9.16666666666667 17.8013245033113  C 9.16666666666667 17.7844671884407  9.1630859375 17.7022877784467  9.15592447916667 17.5547862733293  C 9.14876302083333 17.4072847682119  9.14518229166667 17.2682119205298  9.14518229166667 17.137567730283  C 9.14518229166667 17.0069235400361  9.15115017361111 16.8657435279952  9.1630859375 16.7140276941601  C 9.17502170138889 16.5623118603251  9.19889322916667 16.4422034918724  9.23470052083333 16.3537025888019  Z " fill-rule="nonzero" fill="#000000" stroke="none" transform="matrix(1 0 0 1 26 199 )" />
  </g>
</svg>