<?xml version="1.0" encoding="utf-8"?>
<svg version="1.1" xmlns:xlink="http://www.w3.org/1999/xlink" width="18px" height="13px" xmlns="http://www.w3.org/2000/svg">
  <g transform="matrix(1 0 0 1 -337 -211 )">
    <path d="M 10.6583850931677 6.20040080160321  C 10.7826086956522 6.2872411489646  10.8447204968944 6.38710754843019  10.8447204968944 6.5  C 10.8447204968944 6.61289245156981  10.7826086956522 6.7127588510354  10.6583850931677 6.79959919839679  L 1.97515527950311 12.8697394789579  C 1.85093167701863 12.9565798263193  1.70807453416149 13  1.54658385093168 13  C 1.38509316770186 13  1.24223602484472 12.9565798263193  1.11801242236025 12.8697394789579  L 0.186335403726708 12.2184368737475  C 0.0621118012422361 12.1315965263861  0 12.0317301269205  0 11.9188376753507  C 0 11.8059452237809  0.0621118012422361 11.7060788243153  0.186335403726708 11.6192384769539  L 7.50931677018634 6.5  L 0.186335403726708 1.38076152304609  C 0.0621118012422361 1.2939211756847  0 1.1940547762191  0 1.0811623246493  C 0 0.968269873079491  0.0621118012422361 0.868403473613893  0.186335403726708 0.781563126252504  L 1.11801242236025 0.130260521042084  C 1.24223602484472 0.0434201736806943  1.38509316770186 0  1.54658385093168 0  C 1.70807453416149 0  1.85093167701863 0.0434201736806943  1.97515527950311 0.130260521042084  L 10.6583850931677 6.20040080160321  Z M 17.8136645962733 6.20040080160321  C 17.9378881987578 6.2872411489646  18 6.38710754843019  18 6.5  C 18 6.61289245156981  17.9378881987578 6.7127588510354  17.8136645962733 6.79959919839679  L 9.1304347826087 12.8697394789579  C 9.00621118012423 12.9565798263193  8.86335403726708 13  8.70186335403727 13  C 8.54037267080745 13  8.39751552795031 12.9565798263193  8.27329192546584 12.8697394789579  L 7.3416149068323 12.2184368737475  C 7.21739130434783 12.1315965263861  7.15527950310559 12.0317301269205  7.15527950310559 11.9188376753507  C 7.15527950310559 11.8059452237809  7.21739130434783 11.7060788243153  7.3416149068323 11.6192384769539  L 14.6645962732919 6.5  L 7.3416149068323 1.38076152304609  C 7.21739130434783 1.2939211756847  7.15527950310559 1.1940547762191  7.15527950310559 1.0811623246493  C 7.15527950310559 0.968269873079491  7.21739130434783 0.868403473613893  7.3416149068323 0.781563126252504  L 8.27329192546584 0.130260521042084  C 8.39751552795031 0.0434201736806943  8.54037267080745 0  8.70186335403727 0  C 8.86335403726708 0  9.00621118012423 0.0434201736806943  9.1304347826087 0.130260521042084  L 17.8136645962733 6.20040080160321  Z " fill-rule="nonzero" fill="#000000" stroke="none" transform="matrix(1 0 0 1 337 211 )" />
  </g>
</svg>