<?xml version="1.0" encoding="utf-8"?>
<svg version="1.1" xmlns:xlink="http://www.w3.org/1999/xlink" width="51px" height="51px" xmlns="http://www.w3.org/2000/svg">
  <g transform="matrix(1 0 0 1 -20 -249 )">
    <path d="M 45.5 249  C 59.78 249  71 260.22  71 274.5  C 71 288.78  59.78 300  45.5 300  C 31.22 300  20 288.78  20 274.5  C 20 260.22  31.22 249  45.5 249  Z " fill-rule="nonzero" fill="#ffffff" stroke="none" />
    <path d="M 45.5 249.5  C 59.5 249.5  70.5 260.5  70.5 274.5  C 70.5 288.5  59.5 299.5  45.5 299.5  C 31.5 299.5  20.5 288.5  20.5 274.5  C 20.5 260.5  31.5 249.5  45.5 249.5  Z " stroke-width="1" stroke="#797979" fill="none" />
  </g>
</svg>