<?xml version="1.0" encoding="utf-8"?>
<svg version="1.1" xmlns:xlink="http://www.w3.org/1999/xlink" width="28px" height="28px" xmlns="http://www.w3.org/2000/svg">
  <g transform="matrix(1 0 0 1 -315 -348 )">
    <path d="M 4.22864919354839 4.22864919354839  C 6.83210349462366 1.62519489247312  10.0892204301075 0.272096774193548  14 0.169354838709677  C 17.9107795698925 0.272096774193548  21.1678965053763 1.62519489247312  23.7713508064516 4.22864919354839  C 26.3748051075269 6.83210349462366  27.7279032258065 10.0892204301075  27.8306451612903 14  C 27.7279032258065 17.9107795698925  26.3748051075269 21.1678965053763  23.7713508064516 23.7713508064516  C 21.1678965053763 26.3748051075269  17.9107795698925 27.7279032258065  14 27.8306451612903  C 10.0892204301075 27.7279032258065  6.83210349462366 26.3748051075269  4.22864919354839 23.7713508064516  C 1.62519489247312 21.1678965053763  0.272096774193548 17.9107795698925  0.169354838709677 14  C 0.272096774193548 10.0892204301075  1.62519489247312 6.83210349462366  4.22864919354839 4.22864919354839  Z M 12.8728024193548 21.4398991935484  C 13.1711491935484 21.7270497311828  13.5468817204301 21.8814919354839  14 21.9032258064516  C 14.4531182795699 21.882809139785  14.8288508064516 21.7283669354839  15.1271975806452 21.4398991935484  C 15.4255443548387 21.1514314516129  15.5747177419355 20.7809677419355  15.5747177419355 20.3285080645161  C 15.5747177419355 19.8760483870968  15.4255443548387 19.5003158602151  15.1271975806452 19.201310483871  C 14.8288508064516 18.9023051075269  14.4531182795699 18.7531317204301  14 18.7537903225806  C 13.5468817204301 18.7544489247312  13.1711491935484 18.903622311828  12.8728024193548 19.201310483871  C 12.5744556451613 19.498998655914  12.4252822580645 19.8747311827957  12.4252822580645 20.3285080645161  C 12.4252822580645 20.7822849462366  12.5744556451613 21.152748655914  12.8728024193548 21.4398991935484  Z M 14.0009879032258 13.596935483871  L 14 13.5989112903226  C 13.6706989247312 13.6193279569893  13.3927688172043 13.7375470430108  13.1662096774194 13.9535685483871  C 12.9396505376344 14.1695900537634  12.8263709677419 14.4475201612903  12.8263709677419 14.7873588709677  C 12.8263709677419 15.1271975806452  12.9396505376344 15.4100672043011  13.1662096774194 15.6359677419355  C 13.3927688172043 15.8618682795699  13.6706989247312 15.9751478494624  14 15.9758064516129  C 15.3586962365591 15.9553897849462  16.5319959677419 15.5230174731183  17.5198991935484 14.678689516129  C 18.5078024193548 13.8343615591398  19.1252419354839 12.7433870967742  19.3722177419355 11.4057661290323  C 19.5572849462366 10.0681451612903  19.3155779569893 8.84347446236559  18.6470967741935 7.73175403225807  C 17.9786155913979 6.62003360215054  16.9959811827957 5.8379435483871  15.6991935483871 5.38548387096774  C 14.4024059139785 4.97385752688172  13.1573185483871 5.00975134408602  11.9639314516129 5.49316532258065  C 10.7705443548387 5.97657930107527  9.84422043010752 6.81530913978495  9.18495967741935 8.00935483870968  L 11.1913911290323 9.27485887096774  C 11.5411088709677 8.57476478494624  12.0505376344086 8.07060483870968  12.7196774193548 7.76237903225806  C 13.3888172043011 7.45415322580645  14.0987903225806 7.40772177419355  14.8495967741936 7.62308467741935  C 15.6004032258065 7.83844758064516  16.1766801075269 8.25534274193548  16.5784274193548 8.87377016129032  C 16.9801747311828 9.49219758064516  17.1244086021505 10.1866935483871  17.0111290322581 10.9572580645161  C 16.8978494623656 11.7278225806452  16.5632795698925 12.3554704301075  16.0074193548387 12.8402016129032  C 15.4515591397849 13.3249327956989  14.782748655914 13.5771774193548  14.0009879032258 13.596935483871  Z " fill-rule="nonzero" fill="#000000" stroke="none" transform="matrix(1 0 0 1 315 348 )" />
  </g>
</svg>