<?xml version="1.0" encoding="utf-8"?>
<svg version="1.1" xmlns:xlink="http://www.w3.org/1999/xlink" width="29px" height="30px" xmlns="http://www.w3.org/2000/svg">
  <g transform="matrix(1 0 0 1 -314 -258 )">
    <path d="M 7.93859375 7.84375  L 7.9375 7.84375  L 7.9375 7.09125  C 7.9834375 5.13125  8.62145833333333 3.50192708333333  9.8515625 2.20328125  C 11.0816666666667 0.904635416666666  12.6311458333333 0.23234375  14.5 0.18640625  C 16.3688541666667 0.232343750000001  17.9183333333333 0.904635416666667  19.1484375 2.20328125  C 20.3785416666667 3.50192708333333  21.0165625 5.13125  21.0625 7.09125  L 21.0625 7.84375  L 25.5403125 7.84375  C 25.8363541666667 7.84375  26.0813541666667 7.93489583333333  26.2753125 8.1171875  C 26.4692708333333 8.29947916666667  26.5888541666667 8.53864583333333  26.6340625 8.8346875  L 28.58203125 28.5221875  C 28.62796875 28.8415625  28.54265625 29.1208333333333  28.32609375 29.36  C 28.10953125 29.5991666666667  27.8419270833333 29.71875  27.52328125 29.71875  L 1.4778125 29.71875  C 1.1584375 29.71875  0.890833333333334 29.5991666666667  0.675 29.36  C 0.459166666666667 29.1208333333333  0.373854166666667 28.8415625  0.4190625 28.5221875  L 2.36703125 8.8346875  C 2.41296875 8.53864583333333  2.53255208333333 8.29947916666667  2.72578125 8.1171875  C 2.91901041666667 7.93489583333333  3.16401041666667 7.84375  3.46078125 7.84375  L 7.93859375 7.84375  Z M 10.125 7.09125  L 10.125 7.84375  L 18.875 7.84375  L 18.875 7.09125  C 18.8523958333333 5.74666666666667  18.4251041666667 4.62994791666667  17.593125 3.74109375  C 16.7611458333333 2.85223958333333  15.7301041666667 2.39651041666667  14.5 2.37390625  C 13.2691666666667 2.39651041666667  12.238125 2.85223958333333  11.406875 3.74109375  C 10.575625 4.62994791666667  10.1483333333333 5.74666666666667  10.125 7.09125  Z M 7.93640625 10.03125  L 7.9375 10.03125  L 4.450625 10.03125  L 2.7071875 27  L 26.29171875 27  L 24.54828125 10.03125  L 21.06140625 10.03125  L 21.06140625 13.3125  C 21.06140625 13.631875  20.9589583333333 13.8940104166667  20.7540625 14.09890625  C 20.5491666666667 14.3038020833333  20.28703125 14.40625  19.96765625 14.40625  C 19.64828125 14.40625  19.3861458333333 14.3038020833333  19.18125 14.09890625  C 18.9763541666667 13.8940104166667  18.87390625 13.631875  18.87390625 13.3125  L 18.87390625 10.03125  L 10.12390625 10.03125  L 10.12390625 13.3125  C 10.12390625 13.631875  10.0214583333333 13.8940104166667  9.8165625 14.09890625  C 9.61166666666666 14.3038020833333  9.34953125 14.40625  9.03015625 14.40625  C 8.71078125 14.40625  8.44864583333333 14.3038020833333  8.24375 14.09890625  C 8.03885416666667 13.8940104166667  7.93640625 13.631875  7.93640625 13.3125  L 7.93640625 10.03125  Z " fill-rule="nonzero" fill="#000000" stroke="none" transform="matrix(1 0 0 1 314 258 )" />
  </g>
</svg>