<?xml version="1.0" encoding="utf-8"?>
<svg version="1.1" xmlns:xlink="http://www.w3.org/1999/xlink" width="28px" height="26px" xmlns="http://www.w3.org/2000/svg">
  <g transform="matrix(1 0 0 1 -174 -349 )">
    <path d="M 5.67 25.6340625  C 5.74108024691358 25.68  5.8238811728395 25.6913020833333  5.91840277777778 25.66796875  L 14 21.56640625  L 22.0815972222222 25.66796875  C 22.1761188271605 25.6905729166667  22.2589197530864 25.6792708333333  22.33 25.6340625  C 22.4010802469136 25.5888541666667  22.424899691358 25.5203125  22.4014583333333 25.4284375  L 20.8770138888889 16.74625  L 27.3990046296296 10.59390625  C 27.4700848765432 10.5253645833333  27.4939043209877 10.4513541666667  27.470462962963 10.371875  C 27.4470216049383 10.2923958333333  27.3880401234568 10.2409895833333  27.2935185185185 10.21765625  L 18.2546064814815 8.95328125  L 14.2132407407407 1.0575  C 14.1656018518519 0.966354166666671  14.0945216049383 0.920781250000004  14 0.920781250000004  C 13.9054783950617 0.920781250000004  13.8343981481481 0.966354166666671  13.7867592592593 1.0575  L 9.74539351851852 8.95328125  L 0.706481481481478 10.21765625  C 0.611959876543207 10.2402604166667  0.552978395061726 10.2916666666667  0.529537037037033 10.371875  C 0.506095679012343 10.4520833333333  0.529915123456787 10.52609375  0.600995370370366 10.59390625  L 7.12298611111111 16.74625  L 5.56337962962963 25.4284375  C 5.56337962962963 25.5195833333333  5.59891975308642 25.588125  5.67 25.6340625  Z " fill-rule="nonzero" fill="#000000" stroke="none" transform="matrix(1 0 0 1 174 349 )" />
  </g>
</svg>