<?xml version="1.0" encoding="utf-8"?>
<svg version="1.1" xmlns:xlink="http://www.w3.org/1999/xlink" width="33px" height="26px" xmlns="http://www.w3.org/2000/svg">
  <g transform="matrix(1 0 0 1 -29 -346 )">
    <path d="M 32.9841346153846 5.81557632398757  C 33 5.75077881619934  33 5.67788161993768  32.9841346153846 5.60498442367602  C 32.9286057692308 5.41059190031158  32.7620192307692 5.28099688473525  32.5716346153846 5.26479750778813  L 6.73485576923081 2.71339563862929  C 6.5127403846154 2.68909657320873  6.24302884615379 2.54330218068541  6.13990384615379 2.33271028037385  C 5.83846153846162 1.75763239875385  5.64807692307702 1.43364485981309  5.1721153846154 0.826168224299102  C 4.56129807692298 0.0647975077881019  3.41105769230758 0.0890965732087846  1.30096153846162 0.0728971962616628  C 0.587019230769192 0.0647975077881019  0.00793269230757687 0.494080996884775  0.00793269230757687 1.2149532710281  C 0.00793269230757687 1.9196261682243  0.555288461538385 2.35700934579441  1.24543269230758 2.35700934579441  C 1.93557692307702 2.35700934579441  2.93509615384621 2.39750778816195  3.30793269230758 2.51090342679129  C 3.68076923076919 2.6242990654205  3.98221153846162 3.24797507788161  4.09326923076919 3.79065420560749  C 4.09326923076919 3.79875389408105  4.09326923076919 3.80685358255449  4.10120192307702 3.81495327102805  C 4.11706730769242 3.91214953271026  4.25985576923081 4.64112149532715  4.25985576923081 4.64922118380058  L 7.43293269230758 21.7881619937695  C 7.62331730769242 22.9626168224299  8.01201923076919 23.9345794392524  8.58317307692298 24.6797507788162  C 9.24951923076919 25.5545171339565  10.130048076923 25.9919003115264  11.1930288461538 26  L 29.9617788461538 26  C 30.5646634615384 25.9919003115264  31.0802884615384 25.5221183800622  31.1040865384616 24.9065420560747  C 31.1358173076924 24.2585669781931  30.628125 23.7239875389408  29.9935096153846 23.7239875389408  L 11.1771634615384 23.7239875389408  C 11.0185096153846 23.7239875389408  10.7884615384616 23.7239875389408  10.51875 23.4971962616823  C 10.2411057692308 23.2542056074766  9.86033653846162 22.6953271028037  9.6064903846154 21.391277258567  L 9.2653846153846 19.4716510903427  C 9.2653846153846 19.4473520249221  9.27331730769242 19.4311526479751  9.2971153846154 19.4230529595016  L 31.326201923077 15.6161993769471  C 31.532451923077 15.583800623053  31.6911057692308 15.4137071651091  31.7149038461538 15.195015576324  L 32.9841346153846 5.81557632398757  Z " fill-rule="nonzero" fill="#606266" stroke="none" transform="matrix(1 0 0 1 29 346 )" />
  </g>
</svg>