<?xml version="1.0" encoding="utf-8"?>
<svg version="1.1" xmlns:xlink="http://www.w3.org/1999/xlink" width="31px" height="31px" xmlns="http://www.w3.org/2000/svg">
  <g transform="matrix(1 0 0 1 -388 -346 )">
    <path d="M 22.1653125 2.375  L 8.8346875 2.375  L 2.375 9.7578125  L 2.375 28.625  L 28.625 28.625  L 28.625 9.7578125  L 22.1653125 2.375  Z M 8.3578125 0.1875  L 8.35671875 0.1875  L 22.644375 0.1875  C 22.9863541666667 0.1875  23.27109375 0.312916666666666  23.49859375 0.56375  L 30.54015625 8.63015625  C 30.7224479166667 8.83505208333333  30.81359375 9.07421875  30.81359375 9.34765625  L 30.81359375 29.71875  C 30.81359375 30.038125  30.7111458333333 30.3002604166667  30.50625 30.50515625  C 30.3013541666667 30.7100520833333  30.03921875 30.8125  29.71984375 30.8125  L 1.28234375 30.8125  C 0.962968750000002 30.8125  0.700833333333335 30.7100520833333  0.495937500000001 30.50515625  C 0.291041666666668 30.3002604166667  0.188593750000001 30.038125  0.18859375 29.71875  L 0.18859375 9.34765625  C 0.18859375 9.07421875  0.279739583333333 8.83505208333333  0.46203125 8.63015625  L 7.50359375 0.563749999999999  C 7.73182291666667 0.312916666666666  8.0165625 0.1875  8.3578125 0.1875  Z M 0.1875 11.125  L 0.1875 9  L 30.8125 9  L 30.8125 11.125  L 0.1875 11.125  Z M 15.0209375 2.375  L 13.3125 9.2109375  L 13.3125 19.875  L 17.6875 19.875  L 17.6875 9.2109375  L 15.97796875 2.375  L 15.0209375 2.375  Z M 11.125 8.9375  L 13.3125 0.1875  L 17.6875 0.1875  L 19.875 8.9375  L 19.875 20.96875  C 19.875 21.288125  19.7725520833333 21.5502604166667  19.56765625 21.75515625  C 19.3627604166667 21.9600520833333  19.100625 22.0625  18.78125 22.0625  L 12.21875 22.0625  C 11.899375 22.0625  11.6372395833333 21.9600520833333  11.43234375 21.75515625  C 11.2274479166667 21.5502604166667  11.125 21.288125  11.125 20.96875  L 11.125 8.9375  Z " fill-rule="nonzero" fill="#000000" stroke="none" transform="matrix(1 0 0 1 388 346 )" />
  </g>
</svg>