<?xml version="1.0" encoding="utf-8"?>
<svg version="1.1" xmlns:xlink="http://www.w3.org/1999/xlink" width="27px" height="31px" xmlns="http://www.w3.org/2000/svg">
  <g transform="matrix(1 0 0 1 -464 -346 )">
    <path d="M 24 2.375  L 3 2.375  L 3 28.625  L 24 28.625  L 24 2.375  Z M 0.682343749999999 0.49484375  C 0.887239583333333 0.289947916666667  1.149375 0.1875  1.46875 0.1875  L 25.53125 0.1875  C 25.850625 0.1875  26.1127604166667 0.289947916666667  26.31765625 0.49484375  C 26.5225520833333 0.699739583333334  26.625 0.961875  26.625 1.28125  L 26.625 29.71875  C 26.625 30.038125  26.5225520833333 30.3002604166667  26.31765625 30.50515625  C 26.1127604166667 30.7100520833333  25.850625 30.8125  25.53125 30.8125  L 1.46875 30.8125  C 1.149375 30.8125  0.887239583333334 30.7100520833333  0.682343749999999 30.50515625  C 0.477447916666667 30.3002604166667  0.375 30.038125  0.375 29.71875  L 0.375 1.28125  C 0.375 0.961875  0.477447916666667 0.699739583333334  0.682343749999999 0.49484375  Z M 6.9375 17.6875  L 6.9375 15  L 20.0625 15  L 20.0625 17.6875  L 6.9375 17.6875  Z M 6.9375 11.125  L 6.9375 8.9375  L 13.5 8.9375  L 13.5 11.125  L 6.9375 11.125  Z M 6.9375 24  L 6.9375 22  L 20.0625 22  L 20.0625 24  L 6.9375 24  Z " fill-rule="nonzero" fill="#000000" stroke="none" transform="matrix(1 0 0 1 464 346 )" />
  </g>
</svg>