<?xml version="1.0" encoding="utf-8"?>
<svg version="1.1" xmlns:xlink="http://www.w3.org/1999/xlink" width="52px" height="50px" xmlns="http://www.w3.org/2000/svg">
  <g transform="matrix(1 0 0 1 -1113 -435 )">
    <path d="M 1113 435  L 1165 435  L 1165 485  L 1113 485  L 1113 435  " fill-rule="nonzero" fill="#cccccc" stroke="none" />
    <path d="M 1117 439  L 1161 439  L 1161 481  L 1117 481  L 1117 439  " fill-rule="nonzero" fill="#ffffff" stroke="none" />
    <path d="M 1143.79 450  C 1141.69 450  1140.04 448.35  1140.04 446.25  C 1140.04 444.15  1141.69 442.5  1143.79 442.5  C 1145.89 442.5  1147.54 444.15  1147.54 446.25  C 1147.54 448.35  1145.89 450  1143.79 450  " fill-rule="nonzero" fill="#cccccc" stroke="none" />
    <path d="M 1119 480  L 1119 458.55  L 1129.25 448.8  L 1143.6 457.5  L 1151.8 454.65  L 1160 457.5  L 1160 480  L 1119 480  " fill-rule="nonzero" fill="#169bd5" stroke="none" />
  </g>
</svg>