<?xml version="1.0" encoding="utf-8"?>
<svg version="1.1" xmlns:xlink="http://www.w3.org/1999/xlink" width="15px" height="15px" xmlns="http://www.w3.org/2000/svg">
  <g transform="matrix(1 0 0 1 -23 1 )">
    <path d="M 30.5 -1  C 34.7 -1  38 2.3  38 6.5  C 38 10.7  34.7 14  30.5 14  C 26.3 14  23 10.7  23 6.5  C 23 2.3  26.3 -1  30.5 -1  Z " fill-rule="nonzero" fill="#ffffff" stroke="none" />
    <path d="M 30.5 -0.5  C 34.42 -0.5  37.5 2.58  37.5 6.5  C 37.5 10.42  34.42 13.5  30.5 13.5  C 26.58 13.5  23.5 10.42  23.5 6.5  C 23.5 2.58  26.58 -0.5  30.5 -0.5  Z " stroke-width="1" stroke="#797979" fill="none" />
  </g>
</svg>