<?xml version="1.0" encoding="utf-8"?>
<svg version="1.1" xmlns:xlink="http://www.w3.org/1999/xlink" width="15px" height="15px" xmlns="http://www.w3.org/2000/svg">
  <g transform="matrix(1 0 0 1 0 1 )">
    <path d="M 7.5 -1  C 11.7 -1  15 2.3  15 6.5  C 15 10.7  11.7 14  7.5 14  C 3.3 14  0 10.7  0 6.5  C 0 2.3  3.3 -1  7.5 -1  Z " fill-rule="nonzero" fill="#000000" stroke="none" />
    <path d="M 7.5 -0.5  C 11.42 -0.5  14.5 2.58  14.5 6.5  C 14.5 10.42  11.42 13.5  7.5 13.5  C 3.58 13.5  0.5 10.42  0.5 6.5  C 0.5 2.58  3.58 -0.5  7.5 -0.5  Z " stroke-width="1" stroke="#797979" fill="none" />
  </g>
</svg>