<?xml version="1.0" encoding="utf-8"?>
<svg version="1.1" xmlns:xlink="http://www.w3.org/1999/xlink" width="34px" height="34px" xmlns="http://www.w3.org/2000/svg">
  <g transform="matrix(1 0 0 1 -98 -345 )">
    <path d="M 33.9266187050361 16.9592326139089  C 33.9266187050361 7.60719424460425  26.3112709832136 0  16.9592326139089 0  L 16.9021582733814 0  C 12.3851318944845 0.0163069544364286  8.14532374100742 1.78561151079125  4.94916067146278 4.98177458033564  C 1.76115107913686 8.18609112709823  0 12.4340527577938  0 16.9592326139089  C 0 21.484412470024  1.76115107913686 25.7323741007196  4.95731414868099 28.9366906474822  C 8.14532374100742 32.1328537170266  12.3932853717027 33.9021582733814  16.9103117505996 33.9184652278179  L 16.9673860911271 33.9184652278179  C 26.3194244604318 33.9184652278179  33.9266187050361 26.3112709832136  33.9266187050361 16.9592326139089  Z M 28.5779376498803 7.89256594724226  C 30.3717026378895 10.1918465227818  31.4316546762589 12.9151079136692  31.6517985611512 15.8177458033574  L 25.3247002398081 15.8177458033574  C 25.2513189448442 13.6407673860911  24.9822541966426 11.5616306954436  24.5256594724221 9.60479616306958  C 25.9199040767388 9.15635491606728  27.2733812949639 8.58561151079151  28.5779376498803 7.89256594724226  Z M 15.8177458033574 10.7625899280576  L 15.8177458033574 15.8177458033574  L 10.7788968824942 15.8177458033574  C 10.84412470024 13.820143884892  11.0887290167864 11.9285371702637  11.4964028776976 10.1836930455636  C 12.915107913669 10.5016786570744  14.358273381295 10.6973621103118  15.8177458033574 10.7625899280576  Z M 10.7788968824942 18.1007194244605  L 15.8177458033574 18.1007194244605  L 15.8177458033574 23.1477218225421  C 14.3664268585132 23.2129496402878  12.915107913669 23.4086330935252  11.4964028776976 23.7266187050361  C 11.0887290167864 21.9817745803359  10.84412470024 20.0901678657076  10.7788968824942 18.1007194244605  Z M 18.1007194244605 23.1477218225421  L 18.1007194244605 18.1007194244605  L 23.0988009592325 18.1007194244605  C 23.0335731414868 20.0901678657076  22.7889688249399 21.9817745803359  22.3812949640286 23.7184652278179  C 20.9788968824942 23.400479616307  19.5438848920865 23.2129496402878  18.1007194244605 23.1477218225421  Z M 23.0988009592325 15.8177458033574  L 18.1007194244605 15.8177458033574  L 18.1007194244605 10.7625899280576  C 19.5520383693047 10.6973621103118  20.9870503597125 10.5016786570744  22.3812949640286 10.1918465227818  C 22.7889688249399 11.936690647482  23.0335731414868 13.820143884892  23.0988009592325 15.8177458033574  Z M 21.7616306954438 3.02494004796163  C 23.7184652278179 3.70167865707444  25.5040767386094 4.78609112709823  27.0206235011993 6.20479616306958  C 26.0177458033574 6.70215827338143  24.9822541966426 7.12613908872909  23.9223021582732 7.4685851318946  C 23.3434052757795 5.72374100719417  22.6095923261392 4.21534772182246  21.7616306954438 3.02494004796163  Z M 18.1007194244605 2.5601918465229  C 19.486810551559 3.31031175059964  20.8402877697841 5.32422062350115  21.7697841726621 8.05563549160681  C 20.5712230215825 8.31654676258992  19.3400479616306 8.47961630695446  18.1007194244605 8.54484412470018  L 18.1007194244605 2.5601918465229  Z M 12.1079136690647 8.03932853717038  C 13.0537170263791 5.28345323741008  14.4235011990407 3.26954436450831  15.8177458033574 2.52757793764978  L 15.8177458033574 8.53669064748197  C 14.5621103117508 8.47146282973625  13.3227817745802 8.30839328537171  12.1079136690647 8.03932853717038  Z M 6.89784172661857 6.20479616306958  C 8.39808153477206 4.79424460431645  10.1673860911271 3.71798561151087  12.0997601918465 3.04940047961627  C 11.2599520383694 4.23165467625889  10.5342925659473 5.73189448441238  9.95539568345306 7.46043165467639  C 8.91175059952059 7.11798561151087  7.88441247002405 6.69400479616322  6.89784172661857 6.20479616306958  Z M 2.27482014388488 15.8095923261392  C 2.48681055155897 12.9232613908874  3.54676258992786 10.2  5.34052757793758 7.90071942446048  C 6.6287769784175 8.58561151079151  7.9741007194244 9.15635491606728  9.35203836930468 9.59664268585137  C 8.88729016786595 11.5453237410072  8.61822541966437 13.6326139088729  8.55299760191865 15.8095923261392  L 2.27482014388488 15.8095923261392  Z M 5.33237410071937 26.0095923261392  C 3.54676258992786 23.7184652278179  2.48681055155897 20.9952038369304  2.26666666666667 18.1007194244605  L 8.54484412470044 18.1007194244605  C 8.61822541966437 20.2776978417268  8.88729016786595 22.3649880095925  9.34388489208647 24.3136690647483  C 7.96594724220619 24.7621103117506  6.62062350119928 25.3328537170263  5.33237410071937 26.0095923261392  Z M 12.0997601918465 30.8772182254198  C 10.1673860911271 30.1923261390888  8.39808153477206 29.1242206235014  6.88968824940036 27.7136690647483  C 7.87625899280583 27.2244604316546  8.90359712230238 26.800479616307  9.95539568345306 26.4580335731415  C 10.5342925659473 28.1947242206237  11.2599520383694 29.686810551559  12.0997601918465 30.8772182254198  Z M 15.8177458033574 31.3908872901681  C 14.4153477218225 30.6489208633095  13.0537170263791 28.6268585131896  12.1079136690647 25.8709832134293  C 13.3227817745802 25.6019184652279  14.570263788969 25.4388489208634  15.8177458033574 25.3736211031177  L 15.8177458033574 31.3908872901681  Z M 21.7697841726621 25.8546762589928  C 20.8402877697841 28.5942446043167  19.486810551559 30.6081534772182  18.1007194244605 31.358273381295  L 18.1007194244605 25.3654676258995  C 19.3400479616306 25.4306954436452  20.5712230215825 25.5937649880097  21.7697841726621 25.8546762589928  Z M 27.0287769784175 27.7218225419665  C 25.5122302158276 29.1323741007196  23.7184652278179 30.2167865707434  21.7697841726621 30.8935251798562  C 22.6177458033574 29.7031175059954  23.3515587529977 28.1947242206237  23.9304556354914 26.4498800959233  C 24.9904076738608 26.7923261390888  26.0340527577938 27.2244604316546  27.0287769784175 27.7218225419665  Z M 31.6517985611512 18.1007194244605  C 31.4316546762589 20.9952038369304  30.3798561151077 23.7184652278179  28.5779376498803 26.0177458033574  C 27.2733812949639 25.3247002398081  25.9199040767388 24.7539568345324  24.5256594724221 24.3055155875301  C 24.9822541966426 22.3568345323743  25.2513189448442 20.2776978417268  25.3247002398081 18.1007194244605  L 31.6517985611512 18.1007194244605  Z " fill-rule="nonzero" fill="#606266" stroke="none" transform="matrix(1 0 0 1 98 345 )" />
  </g>
</svg>