<?xml version="1.0" encoding="utf-8"?>
<svg version="1.1" xmlns:xlink="http://www.w3.org/1999/xlink" width="27px" height="27px" xmlns="http://www.w3.org/2000/svg">
  <g transform="matrix(1 0 0 1 -244 -348 )">
    <path d="M 6.87980769230785 0.12980769230785  C 5.73100961538471 0.12980769230785  4.93269230769215 0.928125  5 2.07692307692314  L 5 22.9759615384616  C 4.93269230769215 23.4757211538463  4.52379807692314 23.8846153846153  4.02403846153843 23.8846153846153  C 3.52427884615372 23.8846153846153  3.11538461538471 23.4757211538463  3.11538461538471 22.9759615384616  L 3.11538461538471 4.15384615384628  L 2.07692307692314 4.15384615384628  C 0.928125 4.15384615384628  0 5.08197115384628  0 6.23076923076942  L 0 24.9230769230769  C 0 26.071875  0.928125 27  2.07692307692314 27  L 24.9944711538463 27  C 26.0978365384616 27  27 26.1043269230769  27 24.9944711538463  L 27 2.07692307692314  C 27 0.928125  26.071875 0  24.9230769230769 0  L 6.87980769230785 0.12980769230785  Z M 8.30769230769215 5.0625  C 8.30769230769215 4.56274038461529  8.71658653846157 4.15384615384628  9.21634615384628 4.15384615384628  L 14.6682692307694 4.15384615384628  C 15.1680288461537 4.15384615384628  15.5769230769231 4.56274038461529  15.5769230769231 5.0625  C 15.5769230769231 5.56225961538471  15.1680288461537 5.97115384615372  14.6682692307694 5.97115384615372  L 9.21634615384628 5.97115384615372  C 8.71658653846157 5.97115384615372  8.30769230769215 5.56225961538471  8.30769230769215 5.0625  Z M 8.30769230769215 15.4471153846153  C 8.30769230769215 14.9473557692306  8.71658653846157 14.5384615384616  9.21634615384628 14.5384615384616  L 18.8221153846153 14.5384615384616  C 19.321875 14.5384615384616  19.7307692307694 14.9473557692306  19.7307692307694 15.4471153846153  C 19.7307692307694 15.946875  19.321875 16.3557692307694  18.8221153846153 16.3557692307694  L 9.21634615384628 16.3557692307694  C 8.71658653846157 16.3557692307694  8.30769230769215 15.946875  8.30769230769215 15.4471153846153  Z M 22.8461538461537 20.6394230769231  C 22.8461538461537 21.1391826923078  22.4372596153847 21.5480769230769  21.9375 21.5480769230769  L 9.21634615384628 21.5480769230769  C 8.71658653846157 21.5480769230769  8.30769230769215 21.1391826923078  8.30769230769215 20.6394230769231  C 8.30769230769215 20.1396634615384  8.71658653846157 19.7307692307694  9.21634615384628 19.7307692307694  L 21.9375 19.7307692307694  C 22.4372596153847 19.7307692307694  22.8461538461537 20.1396634615384  22.8461538461537 20.6394230769231  Z M 22.8461538461537 10.2548076923078  C 22.8461538461537 10.7545673076921  22.4372596153847 11.1634615384616  21.9375 11.1634615384616  L 9.21634615384628 11.1634615384616  C 8.71658653846157 11.1634615384616  8.30769230769215 10.7545673076921  8.30769230769215 10.2548076923078  C 8.30769230769215 9.75504807692314  8.71658653846157 9.34615384615372  9.21634615384628 9.34615384615372  L 21.9375 9.34615384615372  C 22.4372596153847 9.34615384615372  22.8461538461537 9.75504807692314  22.8461538461537 10.2548076923078  Z " fill-rule="nonzero" fill="#606266" stroke="none" transform="matrix(1 0 0 1 244 348 )" />
  </g>
</svg>