<?xml version="1.0" encoding="utf-8"?>
<svg version="1.1" xmlns:xlink="http://www.w3.org/1999/xlink" width="17px" height="17px" xmlns="http://www.w3.org/2000/svg">
  <g transform="matrix(1 0 0 1 -387 -135 )">
    <path d="M 12 5  L 1.30241935483871 5  L 1.30241935483871 15.6975806451613  L 12 15.6975806451613  L 12 5  Z M 0.271365927419355 3.87015625  C 0.383728158602151 3.7577940188172  0.527479838709677 3.70161290322581  0.702620967741936 4  L 12.6985887096774 4  C 12.8737298387097 3.70161290322581  13.0174815188172 3.7577940188172  13.12984375 3.87015625  C 13.2422059811828 3.9825184811828  13.2983870967742 4.12627016129032  13 4.30141129032258  L 13 16.2973790322581  C 13.2983870967742 16.4725201612903  13.2422059811828 16.6162718413979  13.12984375 16.7286340725806  C 13.0174815188172 16.8409963037634  12.8737298387097 16.8971774193548  12.6985887096774 16.8971774193548  L 0.702620967741936 16.8971774193548  C 0.527479838709677 16.8971774193548  0.383728158602151 16.8409963037634  0.271365927419355 16.7286340725806  C 0.159003696236559 16.6162718413979  0.102822580645162 16.4725201612903  0.102822580645161 16.2973790322581  L 0.102822580645161 4.30141129032258  C 0.102822580645161 4.12627016129032  0.159003696236559 3.9825184811828  0.271365927419355 3.87015625  Z M 16.7286340725806 0.271365927419355  C 16.8409963037634 0.383728158602151  16.8971774193548 0.527479838709677  16.8971774193548 0.702620967741936  L 16.8971774193548 13.898185483871  C 16.8971774193548 14.0733266129032  16.8409963037634 14.2170782930108  16.7286340725806 14.3294405241936  C 16.6162718413979 14.4418027553763  16.4725201612903 14.4979838709677  16.2973790322581 14.4979838709677  L 14.4979838709677 14.4979838709677  L 14.4979838709677 13.2983870967742  L 15.6975806451613 13.2983870967742  L 15.6975806451613 1.30241935483871  L 6.1008064516129 1.30241935483871  L 6.1008064516129 2.50201612903226  L 4.90120967741936 2.50201612903226  L 4.90120967741936 0.702620967741936  C 4.90120967741936 0.527479838709677  4.95739079301075 0.383728158602151  5.06975302419355 0.271365927419355  C 5.18211525537635 0.159003696236559  5.32586693548387 0.102822580645162  5.50100806451613 0.102822580645161  L 16.2973790322581 0.102822580645161  C 16.4725201612903 0.102822580645161  16.6162718413979 0.159003696236559  16.7286340725806 0.271365927419355  Z M 3.70161290322581 12.6985887096774  L 3.70161290322581 11.4989919354839  L 9.69959677419355 11.4989919354839  L 9.69959677419355 12.6985887096774  L 3.70161290322581 12.6985887096774  Z M 3.70161290322581 9.09979838709677  L 3.70161290322581 7.90020161290323  L 9.69959677419355 7.90020161290323  L 9.69959677419355 9.09979838709677  L 3.70161290322581 9.09979838709677  Z " fill-rule="nonzero" fill="#000000" stroke="none" transform="matrix(1 0 0 1 387 135 )" />
  </g>
</svg>