<?xml version="1.0" encoding="utf-8"?>
<svg version="1.1" xmlns:xlink="http://www.w3.org/1999/xlink" width="9px" height="17px" xmlns="http://www.w3.org/2000/svg">
  <g transform="matrix(1 0 0 1 -283 -229 )">
    <path d="M 0.421071428571429 0.68787037037037  C 0.289352678571429 0.831570216049382  0.223493303571429 0.989502314814815  0.223493303571429 1.16166666666667  C 0.223493303571429 1.33383101851852  0.289352678571429 1.4844174382716  0.421071428571429 1.61342592592593  L 7.27654017857143 8.5  L 0.421071428571428 15.3865740740741  C 0.289352678571428 15.5155825617284  0.223493303571427 15.6661689814815  0.223493303571427 15.8383333333333  C 0.223493303571427 16.0104976851852  0.289352678571428 16.1610841049383  0.421071428571428 16.2900925925926  C 0.552790178571428 16.4191010802469  0.706540178571429 16.4836053240741  0.882321428571428 16.4836053240741  C 1.05810267857143 16.4836053240741  1.21185267857143 16.4262172067901  1.34357142857143 16.3114409722222  L 8.61669642857143 8.97310763888889  C 8.74841517857143 8.84409915123457  8.81427455357143 8.68616705246914  8.81427455357143 8.49931134259259  C 8.81427455357143 8.31245563271604  8.74841517857143 8.15452353395061  8.61669642857143 8.02551504629629  L 1.34357142857143 0.687181712962963  C 1.21185267857143 0.572405478395062  1.05810267857143 0.515017361111111  0.882321428571428 0.515017361111111  C 0.706540178571429 0.515017361111111  0.552790178571428 0.572405478395062  0.421071428571428 0.687181712962963  Z " fill-rule="nonzero" fill="#000000" stroke="none" transform="matrix(1 0 0 1 283 229 )" />
  </g>
</svg>