<?xml version="1.0" encoding="utf-8"?>
<svg version="1.1" xmlns:xlink="http://www.w3.org/1999/xlink" width="14px" height="14px" xmlns="http://www.w3.org/2000/svg">
  <g transform="matrix(1 0 0 1 -840 -142 )">
    <path d="M 2.78210227272729 11.2178977272727  C 3.90601325757575 12.3414772727273  5.31197916666667 12.9241477272727  7 12.9659090909091  C 8.68835227272729 12.9244791666667  10.0943181818182 12.3418087121212  11.2178977272727 11.2178977272727  C 12.3414772727273 10.0939867424242  12.9241477272727 8.68802083333333  12.9659090909091 7  C 12.9244791666667 5.31164772727271  12.3418087121212 3.90568181818179  11.2178977272727 2.78210227272729  C 10.0939867424242 1.65852272727273  8.68802083333333 1.07585227272727  7 1.03409090909093  C 5.31164772727271 1.07552083333331  3.90568181818179 1.65819128787876  2.78210227272729 2.78210227272729  C 1.65852272727273 3.90601325757575  1.07585227272727 5.31197916666667  1.03409090909093 7  C 1.07552083333331 8.68835227272729  1.65819128787876 10.0943181818182  2.78210227272729 11.2178977272727  Z M 11.9174005681818 11.9174005681818  C 10.6072206439394 13.2275804924242  8.96808712121214 13.9085227272727  7 13.9602272727273  C 5.03191287878786 13.9085227272727  3.3927793560606 13.2275804924242  2.08259943181821 11.9174005681818  C 0.772419507575762 10.6072206439394  0.0914772727272748 8.96808712121214  0.0397727272726911 7  C 0.0914772727272748 5.03191287878786  0.772419507575762 3.3927793560606  2.08259943181821 2.08259943181821  C 3.3927793560606 0.772419507575762  5.03191287878786 0.0914772727272748  7 0.0397727272726911  C 8.96808712121214 0.0914772727272748  10.6072206439394 0.772419507575762  11.9174005681818 2.08259943181821  C 13.2275804924242 3.3927793560606  13.9085227272727 5.03191287878786  13.9602272727273 7  C 13.9085227272727 8.96808712121214  13.2275804924242 10.6072206439394  11.9174005681818 11.9174005681818  Z M 6.14538352272729 3.16242897727273  C 6.23851799242425 3.06929450757576  6.35767045454548 3.02272727272731  6.50284090909093 3.02272727272731  C 6.64801136363639 3.02272727272731  6.76716382575756 3.06929450757576  6.86029829545453 3.16242897727273  C 6.95343276515149 3.25556344696969  7 3.37471590909092  7 3.51988636363637  L 7 7.49715909090907  C 7 7.64232954545452  6.95343276515149 7.76148200757575  6.86029829545453 7.85461647727271  C 6.76716382575756 7.94775094696973  6.64801136363639 7.99431818181819  6.50284090909093 7.99431818181819  C 6.35767045454548 7.99431818181819  6.23851799242425 7.94775094696973  6.14538352272729 7.85461647727271  C 6.05224905303027 7.76148200757575  6.00568181818181 7.64232954545452  6.00568181818181 7.49715909090907  L 6.00568181818181 3.51988636363637  C 6.00568181818181 3.37471590909092  6.05224905303027 3.25556344696969  6.14538352272729 3.16242897727273  Z M 6.00568181818181 7.49715909090907  C 6.00568181818181 7.16571969696969  6.1714015151515 7  6.50284090909093 7  L 10.4801136363636 7  C 10.8115530303031 7  10.9772727272727 7.16571969696969  10.9772727272727 7.49715909090907  C 10.9772727272727 7.8285984848485  10.8115530303031 7.99431818181819  10.4801136363636 7.99431818181819  L 6.50284090909093 7.99431818181819  C 6.1714015151515 7.99431818181819  6.00568181818181 7.8285984848485  6.00568181818181 7.49715909090907  Z " fill-rule="nonzero" fill="#c0c4cc" stroke="none" transform="matrix(1 0 0 1 840 142 )" />
  </g>
</svg>