<?xml version="1.0" encoding="utf-8"?>
<svg version="1.1" xmlns:xlink="http://www.w3.org/1999/xlink" width="9px" height="16px" xmlns="http://www.w3.org/2000/svg">
  <g transform="matrix(1 0 0 1 -316 -15 )">
    <path d="M 0.284931506849318 0.230136986301375  C 0.156621004566205 0.373059360730593  0.0924657534246762 0.530136986301358  0.0924657534246762 0.701369863013696  C 0.0924657534246762 0.872602739726034  0.156621004566205 1.02237442922373  0.284931506849318 1.15068493150685  L 6.96301369863011 8  L 0.284931506849318 14.8493150684932  C 0.156621004566205 14.9776255707763  0.0924657534246762 15.127397260274  0.0924657534246762 15.2986301369863  C 0.0924657534246762 15.4698630136986  0.156621004566205 15.6196347031963  0.284931506849318 15.7479452054795  C 0.413242009132432 15.8762557077626  0.56301369863013 15.9404109589041  0.734246575342468 15.9404109589041  C 0.905479452054806 15.9404109589041  1.0552511415525 15.8833333333333  1.18356164383562 15.7691780821918  L 8.26849315068489 8.47054794520548  C 8.396803652968 8.34223744292237  8.46095890410959 8.1851598173516  8.46095890410959 7.99931506849316  C 8.46095890410959 7.81347031963469  8.396803652968 7.65639269406392  8.26849315068489 7.52808219178081  L 1.18356164383562 0.229452054794507  C 1.0552511415525 0.115296803652967  0.905479452054806 0.0582191780821972  0.734246575342468 0.0582191780821972  C 0.56301369863013 0.0582191780821972  0.413242009132432 0.115296803652967  0.284931506849318 0.229452054794507  Z " fill-rule="nonzero" fill="#606266" stroke="none" transform="matrix(1 0 0 1 316 15 )" />
  </g>
</svg>