<?xml version="1.0" encoding="utf-8"?>
<svg version="1.1" xmlns:xlink="http://www.w3.org/1999/xlink" width="158px" height="62px" xmlns="http://www.w3.org/2000/svg">
  <g transform="matrix(1 0 0 1 -662 -811 )">
    <path d="M 662 811  L 820 811  L 820 873  L 662 873  L 662 811  " fill-rule="nonzero" fill="#cccccc" stroke="none" />
    <path d="M 666 815  L 816 815  L 816 869  L 666 869  L 666 815  " fill-rule="nonzero" fill="#ffffff" stroke="none" />
    <path d="M 748.81 829.6  C 746.206 829.6  744.16 827.554  744.16 824.95  C 744.16 822.346  746.206 820.3  748.81 820.3  C 751.414 820.3  753.46 822.346  753.46 824.95  C 753.46 827.554  751.414 829.6  748.81 829.6  " fill-rule="nonzero" fill="#cccccc" stroke="none" />
    <path d="M 668 868  L 668 839.95  L 704.75 827.2  L 756.2 855.992405063291  L 785.6 834.85  L 815 855.992405063291  L 815 868  L 668 868  " fill-rule="nonzero" fill="#169bd5" stroke="none" />
  </g>
</svg>