<?xml version="1.0" encoding="utf-8"?>
<svg version="1.1" xmlns:xlink="http://www.w3.org/1999/xlink" width="13px" height="13px" xmlns="http://www.w3.org/2000/svg">
  <g transform="matrix(1 0 0 1 -17 -88 )">
    <path d="M 23.5 88  C 27.14 88  30 90.86  30 94.5  C 30 98.14  27.14 101  23.5 101  C 19.86 101  17 98.14  17 94.5  C 17 90.86  19.86 88  23.5 88  Z " fill-rule="nonzero" fill="#737373" stroke="none" />
    <path d="M 23.5 88.5  C 26.86 88.5  29.5 91.14  29.5 94.5  C 29.5 97.86  26.86 100.5  23.5 100.5  C 20.14 100.5  17.5 97.86  17.5 94.5  C 17.5 91.14  20.14 88.5  23.5 88.5  Z " stroke-width="1" stroke="#797979" fill="none" />
  </g>
</svg>