<?xml version="1.0" encoding="utf-8"?>
<svg version="1.1" xmlns:xlink="http://www.w3.org/1999/xlink" width="30px" height="17px" xmlns="http://www.w3.org/2000/svg">
  <g transform="matrix(1 0 0 1 -747 -606 )">
    <path d="M 26.75 3.64285714285714  C 26.75 1.6392857142856  25.4000000000001 0  23.75 0  L 3 0  C 1.34999999999991 0  0 1.6392857142856  0 3.64285714285714  L 0 13.3571428571429  C 0 15.3607142857144  1.34999999999991 17  3 17  L 23.75 17  C 25.4000000000001 17  26.75 15.3607142857144  26.75 13.3571428571429  L 26.75 3.64285714285714  Z M 25 3.64285714285714  L 25 13.3571428571429  C 25 14.1919642857143  24.4375 14.875  23.75 14.875  L 3 14.875  C 2.3125 14.875  1.75 14.1919642857143  1.75 13.3571428571429  L 1.75 3.64285714285714  C 1.75 2.80803571428571  2.3125 2.125  3 2.125  L 23.75 2.125  C 24.4375 2.125  25 2.80803571428571  25 3.64285714285714  Z M 30 8.5  C 30 6.70133928571451  29 4.59910714285703  28 4.59910714285703  L 28 12.400892857143  C 29 12.400892857143  30 10.2986607142855  30 8.5  Z " fill-rule="nonzero" fill="#000000" stroke="none" transform="matrix(1 0 0 1 747 606 )" />
  </g>
</svg>