<?xml version="1.0" encoding="utf-8"?>
<svg version="1.1" xmlns:xlink="http://www.w3.org/1999/xlink" width="20px" height="11px" xmlns="http://www.w3.org/2000/svg">
  <g transform="matrix(1 0 0 1 -752 -611 )">
    <path d="M 20 1.03125  C 20 0.464062500000125  19.6746987951805 0  19.277108433735 0  L 0.722891566264956 0  C 0.32530120481949 0  0 0.464062500000125  0 1.03125  L 0 9.96875  C 0 10.5359374999999  0.32530120481949 11  0.722891566264956 11  L 19.277108433735 11  C 19.6746987951805 11  20 10.5359374999999  20 9.96875  L 20 1.03125  Z M 12.0481927710842 4.7265625  L 9.32530120481932 9.96875  L 9.83132530120461 6.2734375  L 8.19277108433718 6.2734375  L 10.9156626506025 1.03125  L 10.4096385542168 4.7265625  L 12.0481927710842 4.7265625  Z " fill-rule="nonzero" fill="#000000" stroke="none" transform="matrix(1 0 0 1 752 611 )" />
  </g>
</svg>