<?xml version="1.0" encoding="utf-8"?>
<svg version="1.1" xmlns:xlink="http://www.w3.org/1999/xlink" width="28px" height="28px" xmlns="http://www.w3.org/2000/svg">
  <g transform="matrix(1 0 0 1 -325 -601 )">
    <path d="M 24.990150862069 3.01090517241379  L 5.35424568965517 10.8646336206897  L 15.8818534482759 12.2839439655172  L 17.2018965517241 22.5148060344828  L 24.990150862069 3.01090517241379  Z M 13.9989439655172 14.1636853448276  L 1.09631465517241 12.4159482758621  C 0.854130747126437 12.3941235632184  0.650668103448276 12.3004885057471  0.485926724137931 12.1350431034483  C 0.321185344827587 11.9695977011494  0.222270114942529 11.7605028735632  0.189181034482759 11.5077586206897  C 0.156091954022989 11.2550143678161  0.200093390804598 11.029375  0.321185344827586 10.8308405172414  C 0.442277298850575 10.6323060344828  0.612650862068966 10.4893893678161  0.832306034482759 10.4020905172414  L 26.5076724137931 0.138491379310345  C 26.7055028735632 0.0504885057471273  26.9036853448276 0.0283117816091962  27.1022198275862 0.0719612068965523  C 27.3007543103448 0.115610632183909  27.4767600574713 0.214525862068966  27.6302370689655 0.368706896551725  C 27.7837140804598 0.522887931034484  27.8826293103448 0.69889367816092  27.9269827586207 0.896724137931035  C 27.9713362068965 1.09455459770115  27.9491594827586 1.29273706896552  27.8604525862069 1.49127155172414  L 17.6295905172414 27.1001077586207  C 17.5415876436782 27.320466954023  17.3930387931034 27.4908405172414  17.1839439655172 27.6112284482759  C 16.974849137931 27.7316163793104  16.7492097701149 27.775617816092  16.507025862069 27.7432327586207  C 16.264841954023 27.7108477011494  16.0613793103448 27.6119324712644  15.8966379310345 27.4464870689655  C 15.7318965517241 27.2810416666667  15.6382614942529 27.0775790229885  15.6157327586207 26.836099137931  L 13.9989439655172 14.1636853448276  Z " fill-rule="nonzero" fill="#000000" stroke="none" transform="matrix(1 0 0 1 325 601 )" />
  </g>
</svg>